<svg width="31" height="31" viewBox="0 0 31 31" xmlns="http://www.w3.org/2000/svg">
<g clip-path="url(#clip0_107_1981)">
<path d="M7.13303 7.41766C8.27737 8.56199 9.99326 8.82537 11.3307 8.82537C11.862 8.82537 12.3333 8.78372 12.6855 8.73927C13.5537 10.1523 14.4577 11.7979 14.581 14.6187C11.7677 14.7822 9.09584 15.6944 6.7976 17.2595L9.83463 19.3811C10.4397 19.8258 11.2233 19.9008 11.9314 19.6886C13.5643 19.3211 15.2548 20.0931 16.0431 21.5662C16.3688 22.1847 17.0442 22.5894 17.7433 22.584H18.8676C19.4271 22.584 19.9581 22.3418 20.3244 21.9192C20.3262 21.9168 20.3286 21.9143 20.3304 21.9119L24.3568 17.3667C22.0243 15.7356 19.2952 14.7854 16.418 14.6185C16.5383 11.7953 17.4136 10.2044 18.3143 8.73921C18.6664 8.78372 19.1377 8.82531 19.6693 8.82531C20.3377 8.82531 21.1012 8.75932 21.8405 8.55043C22.5798 8.34154 23.2948 7.98977 23.867 7.4176C24.7407 6.5433 25.2941 5.15859 25.5108 3.30041C25.664 1.98715 25.5895 0.906992 25.5865 0.861582C25.5538 0.411718 25.196 0.0532809 24.7455 0.021191C24.7001 0.0175582 23.6206 -0.0569145 22.3073 0.0962691C20.4491 0.313027 19.0638 0.866425 18.1901 1.74012C16.4609 3.46885 16.7423 6.50086 16.9056 7.56297C16.4376 8.31884 15.9242 9.16292 15.5 10.2137C15.0759 9.16431 14.5637 8.32035 14.0943 7.56303C14.2575 6.50164 14.5389 3.46909 12.8099 1.74012C11.9362 0.866425 10.5509 0.313027 8.69272 0.0962691C7.37946 -0.0569145 6.29991 0.0175582 6.2545 0.021191C5.80403 0.0532809 5.44619 0.411718 5.4135 0.861582C5.41047 0.906992 5.336 1.98715 5.48918 3.30041C5.70594 5.15865 6.25934 6.54336 7.13303 7.41766Z" fill="currentColor"/>
<path d="M8.16354 25.4254C6.98287 25.2844 5.97416 25.0295 5.07928 24.6474L1.6051 23.207C0.554609 25.3201 0 27.6633 0 30.0918C0 30.5931 0.406875 31 0.908203 31H11.1406V28.7519C11.1406 27.0584 9.86066 25.6283 8.16354 25.4254Z" fill="currentColor"/>
<path d="M25.4461 24.3635L27.6088 20.4122C27.0608 19.7298 26.4433 19.0795 25.7845 18.4946L21.6934 23.1132C20.9819 23.9311 19.952 24.4004 18.8676 24.4004H17.7433C17.067 24.4004 16.4022 24.2169 15.8203 23.8694C15.2385 23.5206 14.7626 23.0211 14.4423 22.4241C13.992 21.5645 12.967 21.2251 12.0634 21.522C10.9299 21.7775 9.73838 21.5389 8.79204 20.8687L5.29424 18.4256C4.23225 19.355 3.27803 20.4515 2.51575 21.6177L5.77922 22.9715C5.78225 22.9727 5.78588 22.9739 5.78891 22.9751C6.52334 23.29 7.371 23.5013 8.37911 23.6218C10.9893 23.9336 12.9571 26.1393 12.9571 28.7519V31H19.8594V29.1012C19.8594 28.1373 20.2354 27.2303 20.9172 26.548C21.5995 25.8662 22.5065 25.4902 23.4704 25.4902C24.2787 25.4902 25.0349 25.0585 25.4461 24.3635Z" fill="currentColor"/>
<path d="M28.7713 22.0724L27.033 25.2474C27.0287 25.2553 27.0245 25.2626 27.0203 25.2698C26.2858 26.5262 24.9253 27.3066 23.4704 27.3066C22.9915 27.3066 22.541 27.4931 22.2019 27.8328C21.8623 28.1719 21.6758 28.6223 21.6758 29.1012V31H30.0918C30.5931 31 31 30.5931 31 30.0918C31 27.2194 30.2238 24.4664 28.7713 22.0724Z" fill="currentColor"/>
</g>
<defs>
<clipPath id="clip0_107_1981">
<rect width="31" height="31" fill="currentColor"/>
</clipPath>
</defs>
</svg>
