<svg width="29" height="33" viewBox="0 0 29 33" xmlns="http://www.w3.org/2000/svg">
<path d="M26.1199 5.61477L23.386 2.88054C23.0084 2.50291 22.3966 2.50291 22.0191 2.88054L21.0873 3.8124C19.9441 3.10529 18.7093 2.59263 17.4 2.2848V0.966797C17.4 0.432416 16.9676 0 16.4333 0H12.5667C12.0324 0 11.6 0.432416 11.6 0.966797V2.2848C10.2907 2.59256 9.05586 3.10522 7.91268 3.8124L6.98094 2.88054C6.60336 2.50291 5.99159 2.50291 5.61401 2.88054L2.88015 5.61477C2.50257 5.9924 2.50257 6.60425 2.88015 6.98188L3.81189 7.91375C3.10487 9.05708 2.59228 10.2921 2.28449 11.6016H0.966667C0.432358 11.6016 0 12.034 0 12.5684V16.4355C0 16.9699 0.432358 17.4023 0.966667 17.4023H2.28449C2.56579 18.592 3.018 19.8567 3.63254 20.9169C3.80622 21.2153 4.12438 21.3984 4.46896 21.3984H7.55998C7.4309 21.2219 7.30059 21.0428 7.17447 20.8971C5.70939 19.2071 4.83333 16.7349 4.83333 14.502C4.83333 9.17136 9.17012 4.83398 14.5 4.83398C19.8299 4.83398 24.1667 9.17136 24.1667 14.502C24.1667 16.7093 23.3048 19.1655 21.8605 20.8555C21.7254 21.0137 21.5857 21.2059 21.4477 21.3984H24.531C24.8756 21.3984 25.1937 21.2153 25.3675 20.9169C25.982 19.8567 26.4342 18.592 26.7155 17.4023H28.0333C28.5676 17.4023 29 16.9699 29 16.4355V12.5684C29 12.034 28.5676 11.6016 28.0333 11.6016H26.7155C26.4078 10.2921 25.8952 9.05708 25.1881 7.91375L26.1199 6.98188C26.4974 6.60425 26.4974 5.99246 26.1199 5.61477Z" fill="currentColor"/>
<path d="M12.5667 31.0664C12.5667 32.1323 13.4342 33 14.5 33C15.5658 33 16.4333 32.1323 16.4333 31.0664V30.0996H12.5667V31.0664Z" fill="currentColor"/>
<path d="M20.3906 19.5999C21.5272 18.2696 22.2333 16.2363 22.2333 14.502C22.2333 10.2373 18.7641 6.76758 14.5 6.76758C10.2359 6.76758 6.76667 10.2373 6.76667 14.502C6.76667 16.2826 7.46524 18.2809 8.63678 19.632C9.36436 20.4735 10.1771 21.7499 10.4852 23.332H13.3209L11.6189 14.6917C11.5141 14.1677 11.8539 13.6588 12.3769 13.554C12.9018 13.4445 13.4097 13.7882 13.5145 14.3122L14.5 19.3051L15.4855 14.3122C15.5894 13.7882 16.0907 13.4436 16.6231 13.554C17.146 13.6588 17.4859 14.1677 17.3811 14.6917L15.6791 23.332H18.5226C18.8423 21.7432 19.6603 20.455 20.3906 19.5999Z" fill="currentColor"/>
<path d="M18.3667 26.2324V25.2656H10.6333V26.2324C10.6333 27.2983 11.5009 28.166 12.5667 28.166H16.4333C17.4991 28.166 18.3667 27.2983 18.3667 26.2324Z" fill="currentColor"/>
</svg>
