<svg width="30" height="36" viewBox="0 0 30 36" xmlns="http://www.w3.org/2000/svg">
<path fill-rule="evenodd" clip-rule="evenodd" d="M27.3074 17.162L24.2076 19.9165L22.5419 23.7118L18.4176 24.1289L14.8377 26.2197L11.258 24.1289L7.13367 23.7118L5.46789 19.9165L2.36817 17.1621L3.25263 13.1099L2.3681 9.05773L5.46789 6.30323L7.1336 2.50791L11.2579 2.09088L14.8377 0L18.4175 2.09088L22.5419 2.50791L24.2076 6.30323L27.3073 9.05766L26.4228 13.1099L27.3074 17.162ZM23.369 12.8533C23.369 8.14915 19.5419 4.32204 14.8377 4.32204C10.1336 4.32204 6.30651 8.14908 6.30651 12.8533C6.30651 17.5575 10.1336 21.3845 14.8377 21.3845C19.5419 21.3845 23.369 17.5574 23.369 12.8533ZM14.8378 19.307C18.3964 19.307 21.2916 16.4119 21.2916 12.8533C21.2916 9.29461 18.3964 6.39943 14.8378 6.39943C11.2791 6.39943 8.38392 9.29461 8.38392 12.8533C8.38392 16.4119 11.2791 19.307 14.8378 19.307ZM12.3748 11.7987L13.9853 13.4093L17.3007 10.0939L18.7697 11.5628L13.9853 16.3472L10.9058 13.2677L12.3748 11.7987ZM4.67592 23.1857L5.74467 25.6208L10.612 26.113L13.8677 28.0145L9.15912 36L6.12155 31.0934L0 31.2746L4.67592 23.1857ZM23.9309 25.6208L24.9996 23.1857L29.6755 31.2746L23.554 31.0934L20.5164 36L15.8078 28.0145L19.0636 26.113L23.9309 25.6208Z" fill="currentColor"/>
</svg>
