<svg width="368" height="123" viewBox="0 0 368 123" xmlns="http://www.w3.org/2000/svg">
<path fill-rule="evenodd" clip-rule="evenodd" d="M422 122.412L417.168 122.412L417.168 117.58L422 117.58L422 122.412ZM335.023 122.412L330.191 122.412L330.191 117.58L335.023 117.58L335.023 122.412ZM373.679 122.412L378.511 122.412L378.511 117.58L373.679 117.58L373.679 122.412ZM291.534 122.412L286.702 122.412L286.702 117.58L291.534 117.58L291.534 122.412ZM243.214 122.412L248.046 122.412L248.046 117.58L243.214 117.58L243.214 122.412ZM400.256 122.412L395.424 122.412L395.424 117.58L400.256 117.58L400.256 122.412ZM308.447 122.412L313.279 122.412L313.279 117.58L308.447 117.58L308.447 122.412ZM356.767 122.412L351.935 122.412L351.935 117.58L356.767 117.58L356.767 122.412ZM264.958 122.412L269.79 122.412L269.79 117.58L264.958 117.58L264.958 122.412ZM226.302 122.412L221.469 122.412L221.469 117.58L226.302 117.58L226.302 122.412ZM422 99.8625L417.168 99.8625L417.168 95.0304L422 95.0304L422 99.8625ZM335.023 99.8625L330.191 99.8625L330.191 95.0304L335.023 95.0304L335.023 99.8625ZM373.679 99.8625L378.511 99.8625L378.511 95.0304L373.679 95.0304L373.679 99.8625ZM291.534 99.8625L286.702 99.8625L286.702 95.0304L291.534 95.0304L291.534 99.8625ZM243.214 99.8625L248.046 99.8625L248.046 95.0304L243.214 95.0304L243.214 99.8625ZM400.256 99.8625L395.424 99.8625L395.424 95.0304L400.256 95.0304L400.256 99.8625ZM308.447 99.8625L313.279 99.8625L313.279 95.0304L308.447 95.0304L308.447 99.8625ZM356.767 99.8625L351.935 99.8625L351.935 95.0304L356.767 95.0304L356.767 99.8625ZM264.958 99.8625L269.79 99.8625L269.79 95.0304L264.958 95.0304L264.958 99.8625ZM226.302 99.8625L221.469 99.8625L221.469 95.0304L226.302 95.0304L226.302 99.8625ZM226.302 74.8968L221.469 74.8968L221.469 70.0647L226.302 70.0647L226.302 74.8968ZM243.214 74.8968L248.046 74.8968L248.046 70.0647L243.214 70.0647L243.214 74.8968ZM291.534 74.8968L286.702 74.8968L286.702 70.0647L291.534 70.0647L291.534 74.8968ZM335.023 74.8968L330.191 74.8968L330.191 70.0647L335.023 70.0647L335.023 74.8968ZM422 74.8968L417.168 74.8968L417.168 70.0647L422 70.0647L422 74.8968ZM373.679 74.8968L378.511 74.8968L378.511 70.0647L373.679 70.0647L373.679 74.8968ZM400.256 74.8968L395.424 74.8968L395.424 70.0647L400.256 70.0647L400.256 74.8968ZM308.447 74.8968L313.279 74.8968L313.279 70.0647L308.447 70.0647L308.447 74.8968ZM356.767 74.8968L351.935 74.8968L351.935 70.0647L356.767 70.0647L356.767 74.8968ZM264.958 74.8968L269.79 74.8968L269.79 70.0647L264.958 70.0647L264.958 74.8968ZM226.302 52.3472L221.469 52.3472L221.469 47.5151L226.302 47.5151L226.302 52.3472ZM243.214 52.3472L248.046 52.3472L248.046 47.5151L243.214 47.5151L243.214 52.3472ZM291.534 52.3472L286.702 52.3472L286.702 47.5151L291.534 47.5151L291.534 52.3472ZM335.023 52.3472L330.191 52.3472L330.191 47.5151L335.023 47.5151L335.023 52.3472ZM422 52.3472L417.168 52.3472L417.168 47.5151L422 47.5151L422 52.3472ZM373.679 52.3472L378.511 52.3472L378.511 47.5151L373.679 47.5151L373.679 52.3472ZM400.256 52.3472L395.424 52.3472L395.424 47.5151L400.256 47.5151L400.256 52.3472ZM308.447 52.3472L313.279 52.3472L313.279 47.5151L308.447 47.5151L308.447 52.3472ZM356.767 52.3472L351.935 52.3472L351.935 47.5151L356.767 47.5151L356.767 52.3472ZM264.958 52.3472L269.79 52.3472L269.79 47.5151L264.958 47.5151L264.958 52.3472ZM221.469 27.3815L226.302 27.3815L226.302 22.5495L221.469 22.5495L221.469 27.3815ZM248.046 27.3815L243.214 27.3815L243.214 22.5495L248.046 22.5495L248.046 27.3815ZM286.702 27.3815L291.534 27.3815L291.534 22.5495L286.702 22.5495L286.702 27.3815ZM330.191 27.3815L335.023 27.3815L335.023 22.5495L330.191 22.5495L330.191 27.3815ZM417.168 27.3815L422 27.3815L422 22.5495L417.168 22.5495L417.168 27.3815ZM378.511 27.3815L373.679 27.3815L373.679 22.5495L378.511 22.5495L378.511 27.3815ZM395.424 27.3815L400.256 27.3815L400.256 22.5495L395.424 22.5495L395.424 27.3815ZM313.279 27.3815L308.447 27.3815L308.447 22.5495L313.279 22.5495L313.279 27.3815ZM351.935 27.3815L356.767 27.3815L356.767 22.5495L351.935 22.5495L351.935 27.3815ZM269.79 27.3815L264.958 27.3815L264.958 22.5495L269.79 22.5495L269.79 27.3815ZM221.469 4.8319L226.302 4.8319L226.302 -0.000162067L221.469 -0.000162489L221.469 4.8319ZM248.046 4.8319L243.214 4.8319L243.214 -0.000160588L248.046 -0.000160166L248.046 4.8319ZM286.702 4.8319L291.534 4.8319L291.534 -0.000163994L286.702 -0.000164416L286.702 4.8319ZM330.191 4.8319L335.023 4.8319L335.023 -0.000160192L330.191 -0.000160614L330.191 4.8319ZM417.168 4.8319L422 4.8319L422 -0.000160217L417.168 -0.00016064L417.168 4.8319ZM378.511 4.83191L373.679 4.8319L373.679 -0.000156812L378.511 -0.00015639L378.511 4.83191ZM395.424 4.83191L400.256 4.83191L400.256 -0.000154489L395.424 -0.000154911L395.424 4.83191ZM313.279 4.8319L308.447 4.8319L308.447 -0.000162515L313.279 -0.000162093L313.279 4.8319ZM351.935 4.8319L356.767 4.8319L356.767 -0.000158291L351.935 -0.000158713L351.935 4.8319ZM269.79 4.8319L264.958 4.8319L264.958 -0.000166317L269.79 -0.000165895L269.79 4.8319Z" fill="currentColor" fill-opacity="0.25"/>
<path fill-rule="evenodd" clip-rule="evenodd" d="M200.531 122.412L195.698 122.412L195.698 117.58L200.531 117.58L200.531 122.412ZM113.553 122.412L108.721 122.412L108.721 117.58L113.553 117.58L113.553 122.412ZM152.21 122.412L157.042 122.412L157.042 117.58L152.21 117.58L152.21 122.412ZM70.0649 122.412L65.2328 122.412L65.2328 117.58L70.0649 117.58L70.0649 122.412ZM21.7443 122.412L26.5763 122.412L26.5763 117.58L21.7443 117.58L21.7443 122.412ZM178.786 122.412L173.954 122.412L173.954 117.58L178.786 117.58L178.786 122.412ZM86.9771 122.412L91.8091 122.412L91.8091 117.58L86.9771 117.58L86.9771 122.412ZM135.298 122.412L130.466 122.412L130.466 117.58L135.298 117.58L135.298 122.412ZM43.4885 122.412L48.3206 122.412L48.3206 117.58L43.4885 117.58L43.4885 122.412ZM4.83205 122.412L-1.52588e-05 122.412L-1.48364e-05 117.58L4.83205 117.58L4.83205 122.412ZM200.531 99.8625L195.698 99.8625L195.698 95.0304L200.531 95.0304L200.531 99.8625ZM113.553 99.8625L108.721 99.8625L108.721 95.0304L113.553 95.0304L113.553 99.8625ZM152.21 99.8625L157.042 99.8625L157.042 95.0304L152.21 95.0304L152.21 99.8625ZM70.0649 99.8625L65.2328 99.8625L65.2328 95.0304L70.0649 95.0304L70.0649 99.8625ZM21.7443 99.8625L26.5763 99.8625L26.5763 95.0304L21.7443 95.0304L21.7443 99.8625ZM178.786 99.8625L173.954 99.8625L173.954 95.0304L178.786 95.0304L178.786 99.8625ZM86.9771 99.8625L91.8091 99.8625L91.8091 95.0304L86.9771 95.0304L86.9771 99.8625ZM135.298 99.8625L130.466 99.8625L130.466 95.0304L135.298 95.0304L135.298 99.8625ZM43.4885 99.8625L48.3206 99.8625L48.3206 95.0304L43.4885 95.0304L43.4885 99.8625ZM4.83205 99.8625L-1.32874e-05 99.8625L-1.2865e-05 95.0304L4.83205 95.0304L4.83205 99.8625ZM4.83205 74.8968L-1.11049e-05 74.8968L-1.06824e-05 70.0647L4.83205 70.0647L4.83205 74.8968ZM21.7443 74.8968L26.5763 74.8968L26.5763 70.0647L21.7443 70.0647L21.7443 74.8968ZM70.0649 74.8968L65.2328 74.8968L65.2328 70.0647L70.0649 70.0647L70.0649 74.8968ZM113.553 74.8968L108.721 74.8968L108.721 70.0647L113.553 70.0647L113.553 74.8968ZM200.531 74.8968L195.698 74.8968L195.698 70.0647L200.531 70.0647L200.531 74.8968ZM152.21 74.8968L157.042 74.8968L157.042 70.0647L152.21 70.0647L152.21 74.8968ZM178.786 74.8968L173.954 74.8968L173.954 70.0647L178.786 70.0647L178.786 74.8968ZM86.9771 74.8968L91.8091 74.8968L91.8091 70.0647L86.9771 70.0647L86.9771 74.8968ZM135.298 74.8968L130.466 74.8968L130.466 70.0647L135.298 70.0647L135.298 74.8968ZM43.4885 74.8968L48.3206 74.8968L48.3206 70.0647L43.4885 70.0647L43.4885 74.8968ZM4.83205 52.3472L-9.13352e-06 52.3472L-8.71109e-06 47.5151L4.83205 47.5151L4.83205 52.3472ZM21.7443 52.3472L26.5763 52.3472L26.5763 47.5151L21.7443 47.5151L21.7443 52.3472ZM70.0649 52.3472L65.2328 52.3472L65.2328 47.5151L70.0649 47.5151L70.0649 52.3472ZM113.553 52.3472L108.721 52.3472L108.721 47.5151L113.553 47.5151L113.553 52.3472ZM200.531 52.3472L195.698 52.3472L195.698 47.5151L200.531 47.5151L200.531 52.3472ZM152.21 52.3472L157.042 52.3472L157.042 47.5151L152.21 47.5151L152.21 52.3472ZM178.786 52.3472L173.954 52.3472L173.954 47.5151L178.786 47.5151L178.786 52.3472ZM86.9771 52.3472L91.8091 52.3472L91.8091 47.5151L86.9771 47.5151L86.9771 52.3472ZM135.298 52.3472L130.466 52.3472L130.466 47.5151L135.298 47.5151L135.298 52.3472ZM43.4885 52.3472L48.3206 52.3472L48.3206 47.5151L43.4885 47.5151L43.4885 52.3472ZM195.698 27.3816L200.531 27.3816L200.531 22.5495L195.698 22.5495L195.698 27.3816ZM108.721 27.3815L113.553 27.3815L113.553 22.5495L108.721 22.5495L108.721 27.3815ZM157.042 27.3815L152.21 27.3815L152.21 22.5495L157.042 22.5495L157.042 27.3815ZM65.2328 27.3815L70.0649 27.3815L70.0649 22.5495L65.2328 22.5495L65.2328 27.3815ZM26.5763 27.3815L21.7443 27.3815L21.7443 22.5495L26.5763 22.5495L26.5763 27.3815ZM173.954 27.3815L178.786 27.3815L178.786 22.5495L173.954 22.5495L173.954 27.3815ZM91.8092 27.3815L86.9771 27.3815L86.9771 22.5495L91.8092 22.5495L91.8092 27.3815ZM130.466 27.3815L135.298 27.3815L135.298 22.5495L130.466 22.5495L130.466 27.3815ZM48.3206 27.3815L43.4885 27.3815L43.4885 22.5495L48.3206 22.5495L48.3206 27.3815ZM-6.95095e-06 27.3815L4.83205 27.3815L4.83206 22.5495L-6.52852e-06 22.5495L-6.95095e-06 27.3815ZM-4.9796e-06 4.83189L4.83206 4.83189L4.83206 -0.000169696L-4.55717e-06 -0.000170119L-4.9796e-06 4.83189ZM26.5763 4.83189L21.7443 4.83189L21.7443 -0.000168218L26.5763 -0.000167795L26.5763 4.83189ZM65.2328 4.8319L70.0649 4.8319L70.0649 -0.000163994L65.2328 -0.000164416L65.2328 4.8319ZM108.721 4.83189L113.553 4.83189L113.553 -0.000167821L108.721 -0.000168243L108.721 4.83189ZM195.698 4.83189L200.531 4.83189L200.531 -0.000167847L195.698 -0.000168269L195.698 4.83189ZM157.042 4.8319L152.21 4.8319L152.21 -0.000164442L157.042 -0.000164019L157.042 4.8319ZM173.954 4.8319L178.786 4.8319L178.786 -0.000162118L173.954 -0.000162541L173.954 4.8319ZM91.8092 4.83189L86.9771 4.83189L86.9771 -0.000170144L91.8092 -0.000169722L91.8092 4.83189ZM130.466 4.8319L135.298 4.8319L135.298 -0.00016592L130.466 -0.000166343L130.466 4.8319ZM48.3206 4.8319L43.4885 4.8319L43.4885 -0.000166317L48.3206 -0.000165895L48.3206 4.8319Z" fill="currentColor" fill-opacity="0.25"/>
</svg>
