<svg width="123" height="422" viewBox="0 0 123 422" xmlns="http://www.w3.org/2000/svg">
<path fill-rule="evenodd" clip-rule="evenodd" d="M122.412 0L122.412 4.83206L117.58 4.83206L117.58 -2.11216e-07L122.412 0ZM122.412 86.9771L122.412 91.8092L117.58 91.8092L117.58 86.9771L122.412 86.9771ZM122.412 48.3206L122.412 43.4886L117.58 43.4886L117.58 48.3206L122.412 48.3206ZM122.412 130.466L122.412 135.298L117.58 135.298L117.58 130.466L122.412 130.466ZM122.412 178.786L122.412 173.954L117.58 173.954L117.58 178.786L122.412 178.786ZM122.412 21.7443L122.412 26.5763L117.58 26.5763L117.58 21.7443L122.412 21.7443ZM122.412 113.553L122.412 108.721L117.58 108.721L117.58 113.553L122.412 113.553ZM122.412 65.2328L122.412 70.0649L117.58 70.0649L117.58 65.2328L122.412 65.2328ZM122.412 157.042L122.412 152.21L117.58 152.21L117.58 157.042L122.412 157.042ZM122.412 195.698L122.412 200.531L117.58 200.531L117.58 195.698L122.412 195.698ZM99.8626 -9.85676e-07L99.8626 4.83206L95.0305 4.83206L95.0305 -1.19689e-06L99.8626 -9.85676e-07ZM99.8626 86.9771L99.8626 91.8092L95.0305 91.8092L95.0305 86.9771L99.8626 86.9771ZM99.8626 48.3206L99.8626 43.4886L95.0305 43.4886L95.0305 48.3206L99.8626 48.3206ZM99.8626 130.466L99.8626 135.298L95.0305 135.298L95.0305 130.466L99.8626 130.466ZM99.8626 178.786L99.8626 173.954L95.0305 173.954L95.0305 178.786L99.8626 178.786ZM99.8626 21.7443L99.8626 26.5763L95.0305 26.5763L95.0305 21.7443L99.8626 21.7443ZM99.8626 113.553L99.8626 108.721L95.0305 108.721L95.0305 113.553L99.8626 113.553ZM99.8626 65.2328L99.8626 70.0649L95.0305 70.0649L95.0305 65.2328L99.8626 65.2328ZM99.8626 157.042L99.8626 152.21L95.0305 152.21L95.0305 157.042L99.8626 157.042ZM99.8626 195.698L99.8626 200.531L95.0305 200.531L95.0305 195.698L99.8626 195.698ZM74.8969 195.698L74.8969 200.531L70.0649 200.531L70.0649 195.698L74.8969 195.698ZM74.8969 178.786L74.8969 173.954L70.0649 173.954L70.0649 178.786L74.8969 178.786ZM74.8969 130.466L74.8969 135.298L70.0649 135.298L70.0649 130.466L74.8969 130.466ZM74.8969 86.9771L74.8969 91.8092L70.0649 91.8092L70.0649 86.9771L74.8969 86.9771ZM74.8969 0L74.8969 4.83206L70.0648 4.83206L70.0648 -2.11217e-07L74.8969 0ZM74.8969 48.3206L74.8969 43.4886L70.0649 43.4886L70.0649 48.3206L74.8969 48.3206ZM74.8969 21.7443L74.8969 26.5763L70.0649 26.5763L70.0649 21.7443L74.8969 21.7443ZM74.8969 113.553L74.8969 108.721L70.0649 108.721L70.0649 113.553L74.8969 113.553ZM74.8969 65.2328L74.8969 70.0649L70.0649 70.0649L70.0649 65.2328L74.8969 65.2328ZM74.8969 157.042L74.8969 152.21L70.0649 152.21L70.0649 157.042L74.8969 157.042ZM52.3473 195.698L52.3473 200.531L47.5153 200.531L47.5153 195.698L52.3473 195.698ZM52.3473 178.786L52.3473 173.954L47.5153 173.954L47.5153 178.786L52.3473 178.786ZM52.3473 130.466L52.3473 135.298L47.5153 135.298L47.5153 130.466L52.3473 130.466ZM52.3473 86.9771L52.3473 91.8092L47.5153 91.8092L47.5153 86.9771L52.3473 86.9771ZM52.3473 -9.85676e-07L52.3473 4.83206L47.5152 4.83206L47.5152 -1.19689e-06L52.3473 -9.85676e-07ZM52.3473 48.3206L52.3473 43.4886L47.5153 43.4886L47.5153 48.3206L52.3473 48.3206ZM52.3473 21.7443L52.3473 26.5763L47.5153 26.5763L47.5153 21.7443L52.3473 21.7443ZM52.3473 113.553L52.3473 108.721L47.5153 108.721L47.5153 113.553L52.3473 113.553ZM52.3473 65.2328L52.3473 70.0649L47.5153 70.0649L47.5153 65.2328L52.3473 65.2328ZM52.3473 157.042L52.3473 152.21L47.5153 152.21L47.5153 157.042L52.3473 157.042ZM27.3816 200.531L27.3816 195.698L22.5496 195.698L22.5496 200.531L27.3816 200.531ZM27.3816 173.954L27.3816 178.786L22.5496 178.786L22.5496 173.954L27.3816 173.954ZM27.3816 135.298L27.3816 130.466L22.5496 130.466L22.5496 135.298L27.3816 135.298ZM27.3816 91.8092L27.3816 86.9771L22.5496 86.9771L22.5496 91.8092L27.3816 91.8092ZM27.3816 4.83206L27.3816 0L22.5496 -2.11217e-07L22.5496 4.83206L27.3816 4.83206ZM27.3816 43.4886L27.3816 48.3206L22.5496 48.3206L22.5496 43.4886L27.3816 43.4886ZM27.3816 26.5763L27.3816 21.7443L22.5496 21.7443L22.5496 26.5763L27.3816 26.5763ZM27.3816 108.721L27.3816 113.553L22.5496 113.553L22.5496 108.721L27.3816 108.721ZM27.3816 70.0649L27.3816 65.2328L22.5496 65.2328L22.5496 70.0649L27.3816 70.0649ZM27.3816 152.21L27.3816 157.042L22.5496 157.042L22.5496 152.21L27.3816 152.21ZM4.83203 200.531L4.83203 195.698L-3.14424e-05 195.698L-3.16537e-05 200.531L4.83203 200.531ZM4.83203 173.954L4.83203 178.786L-3.07032e-05 178.786L-3.0492e-05 173.954L4.83203 173.954ZM4.83203 135.298L4.83203 130.466L-3.62204e-05 130.466L-3.64316e-05 135.298L4.83203 135.298ZM4.83203 91.8092L4.83203 86.9771L-3.43195e-05 86.9771L-3.45307e-05 91.8092L4.83203 91.8092ZM4.83202 4.83206L4.83202 -9.85676e-07L-3.8147e-05 -1.19689e-06L-3.83582e-05 4.83206L4.83202 4.83206ZM4.83203 43.4886L4.83203 48.3206L-3.26297e-05 48.3206L-3.24185e-05 43.4886L4.83203 43.4886ZM4.83203 26.5763L4.83203 21.7443L-3.14681e-05 21.7443L-3.16793e-05 26.5763L4.83203 26.5763ZM4.83203 108.721L4.83203 113.553L-3.54812e-05 113.553L-3.52699e-05 108.721L4.83203 108.721ZM4.83203 70.0649L4.83203 65.2328L-3.3369e-05 65.2328L-3.35802e-05 70.0649L4.83203 70.0649ZM4.83202 152.21L4.83202 157.042L-3.73821e-05 157.042L-3.71709e-05 152.21L4.83202 152.21Z" fill="currentColor" fill-opacity="0.25"/>
<path fill-rule="evenodd" clip-rule="evenodd" d="M122.412 221.469L122.412 226.302L117.58 226.302L117.58 221.469L122.412 221.469ZM122.412 308.447L122.412 313.279L117.58 313.279L117.58 308.447L122.412 308.447ZM122.412 269.79L122.412 264.958L117.58 264.958L117.58 269.79L122.412 269.79ZM122.412 351.935L122.412 356.767L117.58 356.767L117.58 351.935L122.412 351.935ZM122.412 400.256L122.412 395.424L117.58 395.424L117.58 400.256L122.412 400.256ZM122.412 243.214L122.412 248.046L117.58 248.046L117.58 243.214L122.412 243.214ZM122.412 335.023L122.412 330.191L117.58 330.191L117.58 335.023L122.412 335.023ZM122.412 286.702L122.412 291.534L117.58 291.534L117.58 286.702L122.412 286.702ZM122.412 378.511L122.412 373.679L117.58 373.679L117.58 378.511L122.412 378.511ZM122.412 417.168L122.412 422L117.58 422L117.58 417.168L122.412 417.168ZM99.8626 221.469L99.8626 226.302L95.0305 226.302L95.0305 221.469L99.8626 221.469ZM99.8626 308.447L99.8626 313.279L95.0305 313.279L95.0305 308.447L99.8626 308.447ZM99.8626 269.79L99.8626 264.958L95.0305 264.958L95.0305 269.79L99.8626 269.79ZM99.8626 351.935L99.8626 356.767L95.0305 356.767L95.0305 351.935L99.8626 351.935ZM99.8626 400.256L99.8626 395.424L95.0305 395.424L95.0305 400.256L99.8626 400.256ZM99.8626 243.214L99.8626 248.046L95.0305 248.046L95.0305 243.214L99.8626 243.214ZM99.8626 335.023L99.8626 330.191L95.0305 330.191L95.0305 335.023L99.8626 335.023ZM99.8626 286.702L99.8626 291.534L95.0305 291.534L95.0305 286.702L99.8626 286.702ZM99.8626 378.511L99.8626 373.679L95.0305 373.679L95.0305 378.511L99.8626 378.511ZM99.8626 417.168L99.8626 422L95.0305 422L95.0305 417.168L99.8626 417.168ZM74.8969 417.168L74.8969 422L70.0649 422L70.0649 417.168L74.8969 417.168ZM74.8969 400.256L74.8969 395.424L70.0649 395.424L70.0649 400.256L74.8969 400.256ZM74.8969 351.935L74.8969 356.767L70.0649 356.767L70.0649 351.935L74.8969 351.935ZM74.8969 308.447L74.8969 313.279L70.0649 313.279L70.0649 308.447L74.8969 308.447ZM74.8969 221.469L74.8969 226.302L70.0648 226.302L70.0648 221.469L74.8969 221.469ZM74.8969 269.79L74.8969 264.958L70.0649 264.958L70.0649 269.79L74.8969 269.79ZM74.8969 243.214L74.8969 248.046L70.0649 248.046L70.0649 243.214L74.8969 243.214ZM74.8969 335.023L74.8969 330.191L70.0649 330.191L70.0649 335.023L74.8969 335.023ZM74.8969 286.702L74.8969 291.534L70.0649 291.534L70.0649 286.702L74.8969 286.702ZM74.8969 378.511L74.8969 373.679L70.0649 373.679L70.0649 378.511L74.8969 378.511ZM52.3473 417.168L52.3473 422L47.5153 422L47.5153 417.168L52.3473 417.168ZM52.3473 400.256L52.3473 395.424L47.5153 395.424L47.5153 400.256L52.3473 400.256ZM52.3473 351.935L52.3473 356.767L47.5153 356.767L47.5153 351.935L52.3473 351.935ZM52.3473 308.447L52.3473 313.279L47.5153 313.279L47.5153 308.447L52.3473 308.447ZM52.3473 221.469L52.3473 226.302L47.5152 226.302L47.5152 221.469L52.3473 221.469ZM52.3473 269.79L52.3473 264.958L47.5153 264.958L47.5153 269.79L52.3473 269.79ZM52.3473 243.214L52.3473 248.046L47.5153 248.046L47.5153 243.214L52.3473 243.214ZM52.3473 335.023L52.3473 330.191L47.5153 330.191L47.5153 335.023L52.3473 335.023ZM52.3473 286.702L52.3473 291.534L47.5153 291.534L47.5153 286.702L52.3473 286.702ZM52.3473 378.511L52.3473 373.679L47.5153 373.679L47.5153 378.511L52.3473 378.511ZM27.3817 226.302L27.3817 221.469L22.5496 221.469L22.5496 226.302L27.3817 226.302ZM27.3816 313.279L27.3816 308.447L22.5496 308.447L22.5496 313.279L27.3816 313.279ZM27.3816 264.958L27.3816 269.79L22.5496 269.79L22.5496 264.958L27.3816 264.958ZM27.3816 356.767L27.3816 351.935L22.5496 351.935L22.5496 356.767L27.3816 356.767ZM27.3816 395.424L27.3816 400.256L22.5496 400.256L22.5496 395.424L27.3816 395.424ZM27.3816 248.046L27.3816 243.214L22.5496 243.214L22.5496 248.046L27.3816 248.046ZM27.3816 330.191L27.3816 335.023L22.5496 335.023L22.5496 330.191L27.3816 330.191ZM27.3816 291.534L27.3816 286.702L22.5496 286.702L22.5496 291.534L27.3816 291.534ZM27.3816 373.679L27.3816 378.511L22.5496 378.511L22.5496 373.679L27.3816 373.679ZM27.3816 422L27.3816 417.168L22.5496 417.168L22.5496 422L27.3816 422ZM4.83202 422L4.83202 417.168L-3.90718e-05 417.168L-3.9283e-05 422L4.83202 422ZM4.83202 395.424L4.83202 400.256L-3.83326e-05 400.256L-3.81214e-05 395.424L4.83202 395.424ZM4.83203 356.767L4.83203 351.935L-3.62204e-05 351.935L-3.64316e-05 356.767L4.83203 356.767ZM4.83202 313.279L4.83202 308.447L-4.19489e-05 308.447L-4.21601e-05 313.279L4.83202 313.279ZM4.83202 226.302L4.83202 221.469L-4.57764e-05 221.469L-4.59876e-05 226.302L4.83202 226.302ZM4.83202 264.958L4.83202 269.79L-4.02591e-05 269.79L-4.00479e-05 264.958L4.83202 264.958ZM4.83202 248.046L4.83202 243.214L-3.90974e-05 243.214L-3.93087e-05 248.046L4.83202 248.046ZM4.83202 330.191L4.83202 335.023L-4.31106e-05 335.023L-4.28993e-05 330.191L4.83202 330.191ZM4.83202 291.534L4.83202 286.702L-4.09984e-05 286.702L-4.12096e-05 291.534L4.83202 291.534ZM4.83202 373.679L4.83202 378.511L-3.73821e-05 378.511L-3.71709e-05 373.679L4.83202 373.679Z" fill="currentColor" fill-opacity="0.25"/>
</svg>
