<svg width="949" height="123" viewBox="0 0 949 123" xmlns="http://www.w3.org/2000/svg">
<path fill-rule="evenodd" clip-rule="evenodd" d="M276 122.412L271.168 122.412L271.168 117.58L276 117.58L276 122.412ZM189.023 122.412L184.191 122.412L184.191 117.58L189.023 117.58L189.023 122.412ZM227.679 122.412L232.511 122.412L232.511 117.58L227.679 117.58L227.679 122.412ZM145.534 122.412L140.702 122.412L140.702 117.58L145.534 117.58L145.534 122.412ZM97.2137 122.412L102.046 122.412L102.046 117.58L97.2137 117.58L97.2137 122.412ZM254.256 122.412L249.424 122.412L249.424 117.58L254.256 117.58L254.256 122.412ZM162.447 122.412L167.279 122.412L167.279 117.58L162.447 117.58L162.447 122.412ZM210.767 122.412L205.935 122.412L205.935 117.58L210.767 117.58L210.767 122.412ZM118.958 122.412L123.79 122.412L123.79 117.58L118.958 117.58L118.958 122.412ZM80.3015 122.412L75.4695 122.412L75.4695 117.58L80.3015 117.58L80.3015 122.412ZM276 99.8626L271.168 99.8626L271.168 95.0305L276 95.0305L276 99.8626ZM189.023 99.8626L184.191 99.8626L184.191 95.0305L189.023 95.0305L189.023 99.8626ZM227.679 99.8626L232.511 99.8626L232.511 95.0305L227.679 95.0305L227.679 99.8626ZM145.534 99.8626L140.702 99.8626L140.702 95.0305L145.534 95.0305L145.534 99.8626ZM97.2137 99.8626L102.046 99.8626L102.046 95.0305L97.2137 95.0305L97.2137 99.8626ZM254.256 99.8626L249.424 99.8626L249.424 95.0305L254.256 95.0305L254.256 99.8626ZM162.447 99.8626L167.279 99.8626L167.279 95.0305L162.447 95.0305L162.447 99.8626ZM210.767 99.8626L205.935 99.8626L205.935 95.0305L210.767 95.0305L210.767 99.8626ZM118.958 99.8626L123.79 99.8626L123.79 95.0305L118.958 95.0305L118.958 99.8626ZM80.3015 99.8626L75.4695 99.8626L75.4695 95.0305L80.3015 95.0305L80.3015 99.8626ZM80.3015 74.8969L75.4695 74.8969L75.4695 70.0649L80.3015 70.0649L80.3015 74.8969ZM97.2137 74.8969L102.046 74.8969L102.046 70.0649L97.2137 70.0649L97.2137 74.8969ZM145.534 74.8969L140.702 74.8969L140.702 70.0649L145.534 70.0649L145.534 74.8969ZM189.023 74.8969L184.191 74.8969L184.191 70.0649L189.023 70.0649L189.023 74.8969ZM276 74.8969L271.168 74.8969L271.168 70.0648L276 70.0648L276 74.8969ZM227.679 74.8969L232.511 74.8969L232.511 70.0649L227.679 70.0649L227.679 74.8969ZM254.256 74.8969L249.424 74.8969L249.424 70.0649L254.256 70.0649L254.256 74.8969ZM162.447 74.8969L167.279 74.8969L167.279 70.0649L162.447 70.0649L162.447 74.8969ZM210.767 74.8969L205.935 74.8969L205.935 70.0649L210.767 70.0649L210.767 74.8969ZM118.958 74.8969L123.79 74.8969L123.79 70.0649L118.958 70.0649L118.958 74.8969ZM80.3015 52.3473L75.4695 52.3473L75.4695 47.5153L80.3015 47.5153L80.3015 52.3473ZM97.2137 52.3473L102.046 52.3473L102.046 47.5153L97.2137 47.5153L97.2137 52.3473ZM145.534 52.3473L140.702 52.3473L140.702 47.5153L145.534 47.5153L145.534 52.3473ZM189.023 52.3473L184.191 52.3473L184.191 47.5153L189.023 47.5153L189.023 52.3473ZM276 52.3473L271.168 52.3473L271.168 47.5152L276 47.5152L276 52.3473ZM227.679 52.3473L232.511 52.3473L232.511 47.5153L227.679 47.5153L227.679 52.3473ZM254.256 52.3473L249.424 52.3473L249.424 47.5153L254.256 47.5153L254.256 52.3473ZM162.447 52.3473L167.279 52.3473L167.279 47.5153L162.447 47.5153L162.447 52.3473ZM210.767 52.3473L205.935 52.3473L205.935 47.5153L210.767 47.5153L210.767 52.3473ZM118.958 52.3473L123.79 52.3473L123.79 47.5153L118.958 47.5153L118.958 52.3473ZM75.4695 27.3816L80.3015 27.3816L80.3015 22.5496L75.4695 22.5496L75.4695 27.3816ZM102.046 27.3816L97.2137 27.3816L97.2137 22.5496L102.046 22.5496L102.046 27.3816ZM140.702 27.3816L145.534 27.3816L145.534 22.5496L140.702 22.5496L140.702 27.3816ZM184.191 27.3816L189.023 27.3816L189.023 22.5496L184.191 22.5496L184.191 27.3816ZM271.168 27.3816L276 27.3816L276 22.5496L271.168 22.5496L271.168 27.3816ZM232.511 27.3816L227.679 27.3816L227.679 22.5496L232.511 22.5496L232.511 27.3816ZM249.424 27.3816L254.256 27.3816L254.256 22.5496L249.424 22.5496L249.424 27.3816ZM167.279 27.3816L162.447 27.3816L162.447 22.5496L167.279 22.5496L167.279 27.3816ZM205.935 27.3816L210.767 27.3816L210.767 22.5496L205.935 22.5496L205.935 27.3816ZM123.79 27.3816L118.958 27.3816L118.958 22.5496L123.79 22.5496L123.79 27.3816ZM75.4695 4.83202L80.3015 4.83202L80.3015 -3.99967e-05L75.4695 -4.04191e-05L75.4695 4.83202ZM102.046 4.83202L97.2137 4.83202L97.2137 -3.85182e-05L102.046 -3.80957e-05L102.046 4.83202ZM140.702 4.83202L145.534 4.83202L145.534 -4.19232e-05L140.702 -4.23457e-05L140.702 4.83202ZM184.191 4.83202L189.023 4.83202L189.023 -3.81214e-05L184.191 -3.85438e-05L184.191 4.83202ZM271.168 4.83202L276 4.83202L276 -3.8147e-05L271.168 -3.85694e-05L271.168 4.83202ZM232.511 4.83203L227.679 4.83203L227.679 -3.47419e-05L232.511 -3.43195e-05L232.511 4.83203ZM249.424 4.83203L254.256 4.83203L254.256 -3.24185e-05L249.424 -3.2841e-05L249.424 4.83203ZM167.279 4.83202L162.447 4.83202L162.447 -4.04447e-05L167.279 -4.00223e-05L167.279 4.83202ZM205.935 4.83203L210.767 4.83203L210.767 -3.62204e-05L205.935 -3.66428e-05L205.935 4.83203ZM123.79 4.83202L118.958 4.83202L118.958 -4.42466e-05L123.79 -4.38242e-05L123.79 4.83202Z" fill="currentColor" fill-opacity="0.11"/>
<path fill-rule="evenodd" clip-rule="evenodd" d="M54.5305 122.412L49.6985 122.412L49.6985 117.58L54.5305 117.58L54.5305 122.412ZM-32.4466 122.412L-37.2786 122.412L-37.2786 117.58L-32.4466 117.58L-32.4466 122.412ZM6.20992 122.412L11.042 122.412L11.042 117.58L6.20992 117.58L6.20992 122.412ZM-75.9351 122.412L-80.7672 122.412L-80.7672 117.58L-75.9351 117.58L-75.9351 122.412ZM-124.256 122.412L-119.424 122.412L-119.424 117.58L-124.256 117.58L-124.256 122.412ZM32.7863 122.412L27.9542 122.412L27.9542 117.58L32.7863 117.58L32.7863 122.412ZM-59.0229 122.412L-54.1908 122.412L-54.1908 117.58L-59.0229 117.58L-59.0229 122.412ZM-10.7023 122.412L-15.5344 122.412L-15.5344 117.58L-10.7023 117.58L-10.7023 122.412ZM-102.511 122.412L-97.6794 122.412L-97.6794 117.58L-102.511 117.58L-102.511 122.412ZM-141.168 122.412L-146 122.412L-146 117.58L-141.168 117.58L-141.168 122.412ZM54.5305 99.8626L49.6985 99.8626L49.6985 95.0305L54.5305 95.0305L54.5305 99.8626ZM-32.4466 99.8626L-37.2786 99.8626L-37.2786 95.0305L-32.4466 95.0305L-32.4466 99.8626ZM6.20992 99.8626L11.042 99.8626L11.042 95.0305L6.20992 95.0305L6.20992 99.8626ZM-75.9351 99.8626L-80.7672 99.8626L-80.7672 95.0305L-75.9351 95.0305L-75.9351 99.8626ZM-124.256 99.8626L-119.424 99.8626L-119.424 95.0305L-124.256 95.0305L-124.256 99.8626ZM32.7863 99.8626L27.9542 99.8626L27.9542 95.0305L32.7863 95.0305L32.7863 99.8626ZM-59.0229 99.8626L-54.1908 99.8626L-54.1908 95.0305L-59.0229 95.0305L-59.0229 99.8626ZM-10.7023 99.8626L-15.5344 99.8626L-15.5344 95.0305L-10.7023 95.0305L-10.7023 99.8626ZM-102.511 99.8626L-97.6794 99.8626L-97.6794 95.0305L-102.511 95.0305L-102.511 99.8626ZM-141.168 99.8626L-146 99.8626L-146 95.0305L-141.168 95.0305L-141.168 99.8626ZM-141.168 74.8969L-146 74.8969L-146 70.0649L-141.168 70.0649L-141.168 74.8969ZM-124.256 74.8969L-119.424 74.8969L-119.424 70.0649L-124.256 70.0649L-124.256 74.8969ZM-75.9351 74.8969L-80.7672 74.8969L-80.7672 70.0649L-75.9351 70.0649L-75.9351 74.8969ZM-32.4466 74.8969L-37.2786 74.8969L-37.2786 70.0649L-32.4466 70.0649L-32.4466 74.8969ZM54.5305 74.8969L49.6985 74.8969L49.6985 70.0648L54.5305 70.0648L54.5305 74.8969ZM6.20992 74.8969L11.042 74.8969L11.042 70.0649L6.20992 70.0649L6.20992 74.8969ZM32.7863 74.8969L27.9542 74.8969L27.9542 70.0649L32.7863 70.0649L32.7863 74.8969ZM-59.0229 74.8969L-54.1908 74.8969L-54.1908 70.0649L-59.0229 70.0649L-59.0229 74.8969ZM-10.7023 74.8969L-15.5344 74.8969L-15.5344 70.0649L-10.7023 70.0649L-10.7023 74.8969ZM-102.511 74.8969L-97.6794 74.8969L-97.6794 70.0649L-102.511 70.0649L-102.511 74.8969ZM-141.168 52.3473L-146 52.3473L-146 47.5153L-141.168 47.5153L-141.168 52.3473ZM-124.256 52.3473L-119.424 52.3473L-119.424 47.5153L-124.256 47.5153L-124.256 52.3473ZM-75.9351 52.3473L-80.7672 52.3473L-80.7672 47.5153L-75.9351 47.5153L-75.9351 52.3473ZM-32.4466 52.3473L-37.2786 52.3473L-37.2786 47.5153L-32.4466 47.5153L-32.4466 52.3473ZM54.5305 52.3473L49.6985 52.3473L49.6985 47.5152L54.5305 47.5152L54.5305 52.3473ZM6.20992 52.3473L11.042 52.3473L11.042 47.5153L6.20992 47.5153L6.20992 52.3473ZM32.7863 52.3473L27.9542 52.3473L27.9542 47.5153L32.7863 47.5153L32.7863 52.3473ZM-59.0229 52.3473L-54.1909 52.3473L-54.1909 47.5153L-59.0229 47.5153L-59.0229 52.3473ZM-10.7023 52.3473L-15.5344 52.3473L-15.5344 47.5153L-10.7023 47.5153L-10.7023 52.3473ZM-102.511 52.3473L-97.6794 52.3473L-97.6794 47.5153L-102.511 47.5153L-102.511 52.3473ZM49.6985 27.3817L54.5305 27.3817L54.5305 22.5496L49.6985 22.5496L49.6985 27.3817ZM-37.2786 27.3816L-32.4465 27.3816L-32.4465 22.5496L-37.2786 22.5496L-37.2786 27.3816ZM11.042 27.3816L6.20993 27.3816L6.20993 22.5496L11.042 22.5496L11.042 27.3816ZM-80.7672 27.3816L-75.9351 27.3816L-75.9351 22.5496L-80.7672 22.5496L-80.7672 27.3816ZM-119.424 27.3816L-124.256 27.3816L-124.256 22.5496L-119.424 22.5496L-119.424 27.3816ZM27.9542 27.3816L32.7863 27.3816L32.7863 22.5496L27.9542 22.5496L27.9542 27.3816ZM-54.1908 27.3816L-59.0229 27.3816L-59.0229 22.5496L-54.1908 22.5496L-54.1908 27.3816ZM-15.5343 27.3816L-10.7023 27.3816L-10.7023 22.5496L-15.5343 22.5496L-15.5343 27.3816ZM-97.6794 27.3816L-102.511 27.3816L-102.511 22.5496L-97.6794 22.5496L-97.6794 27.3816ZM-146 27.3816L-141.168 27.3816L-141.168 22.5496L-146 22.5496L-146 27.3816ZM-146 4.83201L-141.168 4.83201L-141.168 -4.76261e-05L-146 -4.80485e-05L-146 4.83201ZM-119.424 4.83202L-124.256 4.83202L-124.256 -4.61476e-05L-119.424 -4.57251e-05L-119.424 4.83202ZM-80.7672 4.83202L-75.9351 4.83202L-75.9351 -4.19232e-05L-80.7672 -4.23457e-05L-80.7672 4.83202ZM-37.2786 4.83202L-32.4465 4.83202L-32.4465 -4.57508e-05L-37.2786 -4.61732e-05L-37.2786 4.83202ZM49.6985 4.83202L54.5305 4.83202L54.5305 -4.57764e-05L49.6985 -4.61988e-05L49.6985 4.83202ZM11.042 4.83202L6.20994 4.83202L6.20994 -4.23713e-05L11.042 -4.19489e-05L11.042 4.83202ZM27.9542 4.83202L32.7863 4.83202L32.7863 -4.00479e-05L27.9542 -4.04703e-05L27.9542 4.83202ZM-54.1908 4.83201L-59.0229 4.83201L-59.0229 -4.80741e-05L-54.1908 -4.76517e-05L-54.1908 4.83201ZM-15.5343 4.83202L-10.7023 4.83202L-10.7023 -4.38498e-05L-15.5343 -4.42722e-05L-15.5343 4.83202ZM-97.6794 4.83202L-102.511 4.83202L-102.511 -4.42466e-05L-97.6794 -4.38242e-05L-97.6794 4.83202Z" fill="currentColor" fill-opacity="0.11"/>
<path fill-rule="evenodd" clip-rule="evenodd" d="M717 122.412L712.168 122.412L712.168 117.58L717 117.58L717 122.412ZM630.023 122.412L625.191 122.412L625.191 117.58L630.023 117.58L630.023 122.412ZM668.679 122.412L673.511 122.412L673.511 117.58L668.679 117.58L668.679 122.412ZM586.534 122.412L581.702 122.412L581.702 117.58L586.534 117.58L586.534 122.412ZM538.214 122.412L543.046 122.412L543.046 117.58L538.214 117.58L538.214 122.412ZM695.256 122.412L690.424 122.412L690.424 117.58L695.256 117.58L695.256 122.412ZM603.447 122.412L608.279 122.412L608.279 117.58L603.447 117.58L603.447 122.412ZM651.767 122.412L646.935 122.412L646.935 117.58L651.767 117.58L651.767 122.412ZM559.958 122.412L564.79 122.412L564.79 117.58L559.958 117.58L559.958 122.412ZM521.302 122.412L516.469 122.412L516.469 117.58L521.302 117.58L521.302 122.412ZM717 99.8626L712.168 99.8626L712.168 95.0305L717 95.0305L717 99.8626ZM630.023 99.8626L625.191 99.8626L625.191 95.0305L630.023 95.0305L630.023 99.8626ZM668.679 99.8626L673.511 99.8626L673.511 95.0305L668.679 95.0305L668.679 99.8626ZM586.534 99.8626L581.702 99.8626L581.702 95.0305L586.534 95.0305L586.534 99.8626ZM538.214 99.8626L543.046 99.8626L543.046 95.0305L538.214 95.0305L538.214 99.8626ZM695.256 99.8626L690.424 99.8626L690.424 95.0305L695.256 95.0305L695.256 99.8626ZM603.447 99.8626L608.279 99.8626L608.279 95.0305L603.447 95.0305L603.447 99.8626ZM651.767 99.8626L646.935 99.8626L646.935 95.0305L651.767 95.0305L651.767 99.8626ZM559.958 99.8626L564.79 99.8626L564.79 95.0305L559.958 95.0305L559.958 99.8626ZM521.302 99.8626L516.469 99.8626L516.469 95.0305L521.302 95.0305L521.302 99.8626ZM521.302 74.8969L516.469 74.8969L516.469 70.0649L521.302 70.0649L521.302 74.8969ZM538.214 74.8969L543.046 74.8969L543.046 70.0649L538.214 70.0649L538.214 74.8969ZM586.534 74.8969L581.702 74.8969L581.702 70.0649L586.534 70.0649L586.534 74.8969ZM630.023 74.8969L625.191 74.8969L625.191 70.0649L630.023 70.0649L630.023 74.8969ZM717 74.8969L712.168 74.8969L712.168 70.0648L717 70.0648L717 74.8969ZM668.679 74.8969L673.511 74.8969L673.511 70.0649L668.679 70.0649L668.679 74.8969ZM695.256 74.8969L690.424 74.8969L690.424 70.0649L695.256 70.0649L695.256 74.8969ZM603.447 74.8969L608.279 74.8969L608.279 70.0649L603.447 70.0649L603.447 74.8969ZM651.767 74.8969L646.935 74.8969L646.935 70.0649L651.767 70.0649L651.767 74.8969ZM559.958 74.8969L564.79 74.8969L564.79 70.0649L559.958 70.0649L559.958 74.8969ZM521.302 52.3473L516.469 52.3473L516.469 47.5153L521.302 47.5153L521.302 52.3473ZM538.214 52.3473L543.046 52.3473L543.046 47.5153L538.214 47.5153L538.214 52.3473ZM586.534 52.3473L581.702 52.3473L581.702 47.5153L586.534 47.5153L586.534 52.3473ZM630.023 52.3473L625.191 52.3473L625.191 47.5153L630.023 47.5153L630.023 52.3473ZM717 52.3473L712.168 52.3473L712.168 47.5152L717 47.5152L717 52.3473ZM668.679 52.3473L673.511 52.3473L673.511 47.5153L668.679 47.5153L668.679 52.3473ZM695.256 52.3473L690.424 52.3473L690.424 47.5153L695.256 47.5153L695.256 52.3473ZM603.447 52.3473L608.279 52.3473L608.279 47.5153L603.447 47.5153L603.447 52.3473ZM651.767 52.3473L646.935 52.3473L646.935 47.5153L651.767 47.5153L651.767 52.3473ZM559.958 52.3473L564.79 52.3473L564.79 47.5153L559.958 47.5153L559.958 52.3473ZM516.469 27.3816L521.302 27.3816L521.302 22.5496L516.469 22.5496L516.469 27.3816ZM543.046 27.3816L538.214 27.3816L538.214 22.5496L543.046 22.5496L543.046 27.3816ZM581.702 27.3816L586.534 27.3816L586.534 22.5496L581.702 22.5496L581.702 27.3816ZM625.191 27.3816L630.023 27.3816L630.023 22.5496L625.191 22.5496L625.191 27.3816ZM712.168 27.3816L717 27.3816L717 22.5496L712.168 22.5496L712.168 27.3816ZM673.511 27.3816L668.679 27.3816L668.679 22.5496L673.511 22.5496L673.511 27.3816ZM690.424 27.3816L695.256 27.3816L695.256 22.5496L690.424 22.5496L690.424 27.3816ZM608.279 27.3816L603.447 27.3816L603.447 22.5496L608.279 22.5496L608.279 27.3816ZM646.935 27.3816L651.767 27.3816L651.767 22.5496L646.935 22.5496L646.935 27.3816ZM564.79 27.3816L559.958 27.3816L559.958 22.5496L564.79 22.5496L564.79 27.3816ZM516.469 4.83202L521.302 4.83202L521.302 -3.99967e-05L516.469 -4.04191e-05L516.469 4.83202ZM543.046 4.83202L538.214 4.83202L538.214 -3.85182e-05L543.046 -3.80957e-05L543.046 4.83202ZM581.702 4.83202L586.534 4.83202L586.534 -4.19232e-05L581.702 -4.23457e-05L581.702 4.83202ZM625.191 4.83202L630.023 4.83202L630.023 -3.81214e-05L625.191 -3.85438e-05L625.191 4.83202ZM712.168 4.83202L717 4.83202L717 -3.8147e-05L712.168 -3.85694e-05L712.168 4.83202ZM673.511 4.83203L668.679 4.83203L668.679 -3.47419e-05L673.511 -3.43195e-05L673.511 4.83203ZM690.424 4.83203L695.256 4.83203L695.256 -3.24185e-05L690.424 -3.2841e-05L690.424 4.83203ZM608.279 4.83202L603.447 4.83202L603.447 -4.04447e-05L608.279 -4.00223e-05L608.279 4.83202ZM646.935 4.83203L651.767 4.83203L651.767 -3.62204e-05L646.935 -3.66428e-05L646.935 4.83203ZM564.79 4.83202L559.958 4.83202L559.958 -4.42466e-05L564.79 -4.38242e-05L564.79 4.83202Z" fill="currentColor" fill-opacity="0.11"/>
<path fill-rule="evenodd" clip-rule="evenodd" d="M495.531 122.412L490.698 122.412L490.698 117.58L495.531 117.58L495.531 122.412ZM408.553 122.412L403.721 122.412L403.721 117.58L408.553 117.58L408.553 122.412ZM447.21 122.412L452.042 122.412L452.042 117.58L447.21 117.58L447.21 122.412ZM365.065 122.412L360.233 122.412L360.233 117.58L365.065 117.58L365.065 122.412ZM316.744 122.412L321.576 122.412L321.576 117.58L316.744 117.58L316.744 122.412ZM473.786 122.412L468.954 122.412L468.954 117.58L473.786 117.58L473.786 122.412ZM381.977 122.412L386.809 122.412L386.809 117.58L381.977 117.58L381.977 122.412ZM430.298 122.412L425.466 122.412L425.466 117.58L430.298 117.58L430.298 122.412ZM338.489 122.412L343.321 122.412L343.321 117.58L338.489 117.58L338.489 122.412ZM299.832 122.412L295 122.412L295 117.58L299.832 117.58L299.832 122.412ZM495.531 99.8626L490.698 99.8626L490.698 95.0305L495.531 95.0305L495.531 99.8626ZM408.553 99.8626L403.721 99.8626L403.721 95.0305L408.553 95.0305L408.553 99.8626ZM447.21 99.8626L452.042 99.8626L452.042 95.0305L447.21 95.0305L447.21 99.8626ZM365.065 99.8626L360.233 99.8626L360.233 95.0305L365.065 95.0305L365.065 99.8626ZM316.744 99.8626L321.576 99.8626L321.576 95.0305L316.744 95.0305L316.744 99.8626ZM473.786 99.8626L468.954 99.8626L468.954 95.0305L473.786 95.0305L473.786 99.8626ZM381.977 99.8626L386.809 99.8626L386.809 95.0305L381.977 95.0305L381.977 99.8626ZM430.298 99.8626L425.466 99.8626L425.466 95.0305L430.298 95.0305L430.298 99.8626ZM338.489 99.8626L343.321 99.8626L343.321 95.0305L338.489 95.0305L338.489 99.8626ZM299.832 99.8626L295 99.8626L295 95.0305L299.832 95.0305L299.832 99.8626ZM299.832 74.8969L295 74.8969L295 70.0649L299.832 70.0649L299.832 74.8969ZM316.744 74.8969L321.576 74.8969L321.576 70.0649L316.744 70.0649L316.744 74.8969ZM365.065 74.8969L360.233 74.8969L360.233 70.0649L365.065 70.0649L365.065 74.8969ZM408.553 74.8969L403.721 74.8969L403.721 70.0649L408.553 70.0649L408.553 74.8969ZM495.531 74.8969L490.698 74.8969L490.698 70.0648L495.531 70.0648L495.531 74.8969ZM447.21 74.8969L452.042 74.8969L452.042 70.0649L447.21 70.0649L447.21 74.8969ZM473.786 74.8969L468.954 74.8969L468.954 70.0649L473.786 70.0649L473.786 74.8969ZM381.977 74.8969L386.809 74.8969L386.809 70.0649L381.977 70.0649L381.977 74.8969ZM430.298 74.8969L425.466 74.8969L425.466 70.0649L430.298 70.0649L430.298 74.8969ZM338.489 74.8969L343.321 74.8969L343.321 70.0649L338.489 70.0649L338.489 74.8969ZM299.832 52.3473L295 52.3473L295 47.5153L299.832 47.5153L299.832 52.3473ZM316.744 52.3473L321.576 52.3473L321.576 47.5153L316.744 47.5153L316.744 52.3473ZM365.065 52.3473L360.233 52.3473L360.233 47.5153L365.065 47.5153L365.065 52.3473ZM408.553 52.3473L403.721 52.3473L403.721 47.5153L408.553 47.5153L408.553 52.3473ZM495.531 52.3473L490.698 52.3473L490.698 47.5152L495.531 47.5152L495.531 52.3473ZM447.21 52.3473L452.042 52.3473L452.042 47.5153L447.21 47.5153L447.21 52.3473ZM473.786 52.3473L468.954 52.3473L468.954 47.5153L473.786 47.5153L473.786 52.3473ZM381.977 52.3473L386.809 52.3473L386.809 47.5153L381.977 47.5153L381.977 52.3473ZM430.298 52.3473L425.466 52.3473L425.466 47.5153L430.298 47.5153L430.298 52.3473ZM338.489 52.3473L343.321 52.3473L343.321 47.5153L338.489 47.5153L338.489 52.3473ZM490.698 27.3817L495.531 27.3817L495.531 22.5496L490.698 22.5496L490.698 27.3817ZM403.721 27.3816L408.553 27.3816L408.553 22.5496L403.721 22.5496L403.721 27.3816ZM452.042 27.3816L447.21 27.3816L447.21 22.5496L452.042 22.5496L452.042 27.3816ZM360.233 27.3816L365.065 27.3816L365.065 22.5496L360.233 22.5496L360.233 27.3816ZM321.576 27.3816L316.744 27.3816L316.744 22.5496L321.576 22.5496L321.576 27.3816ZM468.954 27.3816L473.786 27.3816L473.786 22.5496L468.954 22.5496L468.954 27.3816ZM386.809 27.3816L381.977 27.3816L381.977 22.5496L386.809 22.5496L386.809 27.3816ZM425.466 27.3816L430.298 27.3816L430.298 22.5496L425.466 22.5496L425.466 27.3816ZM343.321 27.3816L338.489 27.3816L338.489 22.5496L343.321 22.5496L343.321 27.3816ZM295 27.3816L299.832 27.3816L299.832 22.5496L295 22.5496L295 27.3816ZM295 4.83201L299.832 4.83201L299.832 -4.76261e-05L295 -4.80485e-05L295 4.83201ZM321.576 4.83202L316.744 4.83202L316.744 -4.61476e-05L321.576 -4.57251e-05L321.576 4.83202ZM360.233 4.83202L365.065 4.83202L365.065 -4.19232e-05L360.233 -4.23457e-05L360.233 4.83202ZM403.721 4.83202L408.553 4.83202L408.553 -4.57508e-05L403.721 -4.61732e-05L403.721 4.83202ZM490.698 4.83202L495.531 4.83202L495.531 -4.57764e-05L490.698 -4.61988e-05L490.698 4.83202ZM452.042 4.83202L447.21 4.83202L447.21 -4.23713e-05L452.042 -4.19489e-05L452.042 4.83202ZM468.954 4.83202L473.786 4.83202L473.786 -4.00479e-05L468.954 -4.04703e-05L468.954 4.83202ZM386.809 4.83201L381.977 4.83201L381.977 -4.80741e-05L386.809 -4.76517e-05L386.809 4.83201ZM425.466 4.83202L430.298 4.83202L430.298 -4.38498e-05L425.466 -4.42722e-05L425.466 4.83202ZM343.321 4.83202L338.489 4.83202L338.489 -4.42466e-05L343.321 -4.38242e-05L343.321 4.83202Z" fill="currentColor" fill-opacity="0.11"/>
<path fill-rule="evenodd" clip-rule="evenodd" d="M936.531 122.412L931.698 122.412L931.698 117.58L936.531 117.58L936.531 122.412ZM849.553 122.412L844.721 122.412L844.721 117.58L849.553 117.58L849.553 122.412ZM888.21 122.412L893.042 122.412L893.042 117.58L888.21 117.58L888.21 122.412ZM806.065 122.412L801.233 122.412L801.233 117.58L806.065 117.58L806.065 122.412ZM757.744 122.412L762.576 122.412L762.576 117.58L757.744 117.58L757.744 122.412ZM914.786 122.412L909.954 122.412L909.954 117.58L914.786 117.58L914.786 122.412ZM822.977 122.412L827.809 122.412L827.809 117.58L822.977 117.58L822.977 122.412ZM871.298 122.412L866.466 122.412L866.466 117.58L871.298 117.58L871.298 122.412ZM779.489 122.412L784.321 122.412L784.321 117.58L779.489 117.58L779.489 122.412ZM740.832 122.412L736 122.412L736 117.58L740.832 117.58L740.832 122.412ZM936.531 99.8626L931.698 99.8626L931.698 95.0305L936.531 95.0305L936.531 99.8626ZM849.553 99.8626L844.721 99.8626L844.721 95.0305L849.553 95.0305L849.553 99.8626ZM888.21 99.8626L893.042 99.8626L893.042 95.0305L888.21 95.0305L888.21 99.8626ZM806.065 99.8626L801.233 99.8626L801.233 95.0305L806.065 95.0305L806.065 99.8626ZM757.744 99.8626L762.576 99.8626L762.576 95.0305L757.744 95.0305L757.744 99.8626ZM914.786 99.8626L909.954 99.8626L909.954 95.0305L914.786 95.0305L914.786 99.8626ZM822.977 99.8626L827.809 99.8626L827.809 95.0305L822.977 95.0305L822.977 99.8626ZM871.298 99.8626L866.466 99.8626L866.466 95.0305L871.298 95.0305L871.298 99.8626ZM779.489 99.8626L784.321 99.8626L784.321 95.0305L779.489 95.0305L779.489 99.8626ZM740.832 99.8626L736 99.8626L736 95.0305L740.832 95.0305L740.832 99.8626ZM740.832 74.8969L736 74.8969L736 70.0649L740.832 70.0649L740.832 74.8969ZM757.744 74.8969L762.576 74.8969L762.576 70.0649L757.744 70.0649L757.744 74.8969ZM806.065 74.8969L801.233 74.8969L801.233 70.0649L806.065 70.0649L806.065 74.8969ZM849.553 74.8969L844.721 74.8969L844.721 70.0649L849.553 70.0649L849.553 74.8969ZM936.531 74.8969L931.698 74.8969L931.698 70.0648L936.531 70.0648L936.531 74.8969ZM888.21 74.8969L893.042 74.8969L893.042 70.0649L888.21 70.0649L888.21 74.8969ZM914.786 74.8969L909.954 74.8969L909.954 70.0649L914.786 70.0649L914.786 74.8969ZM822.977 74.8969L827.809 74.8969L827.809 70.0649L822.977 70.0649L822.977 74.8969ZM871.298 74.8969L866.466 74.8969L866.466 70.0649L871.298 70.0649L871.298 74.8969ZM779.489 74.8969L784.321 74.8969L784.321 70.0649L779.489 70.0649L779.489 74.8969ZM740.832 52.3473L736 52.3473L736 47.5153L740.832 47.5153L740.832 52.3473ZM757.744 52.3473L762.576 52.3473L762.576 47.5153L757.744 47.5153L757.744 52.3473ZM806.065 52.3473L801.233 52.3473L801.233 47.5153L806.065 47.5153L806.065 52.3473ZM849.553 52.3473L844.721 52.3473L844.721 47.5153L849.553 47.5153L849.553 52.3473ZM936.531 52.3473L931.698 52.3473L931.698 47.5152L936.531 47.5152L936.531 52.3473ZM888.21 52.3473L893.042 52.3473L893.042 47.5153L888.21 47.5153L888.21 52.3473ZM914.786 52.3473L909.954 52.3473L909.954 47.5153L914.786 47.5153L914.786 52.3473ZM822.977 52.3473L827.809 52.3473L827.809 47.5153L822.977 47.5153L822.977 52.3473ZM871.298 52.3473L866.466 52.3473L866.466 47.5153L871.298 47.5153L871.298 52.3473ZM779.489 52.3473L784.321 52.3473L784.321 47.5153L779.489 47.5153L779.489 52.3473ZM931.698 27.3817L936.531 27.3817L936.531 22.5496L931.698 22.5496L931.698 27.3817ZM844.721 27.3816L849.553 27.3816L849.553 22.5496L844.721 22.5496L844.721 27.3816ZM893.042 27.3816L888.21 27.3816L888.21 22.5496L893.042 22.5496L893.042 27.3816ZM801.233 27.3816L806.065 27.3816L806.065 22.5496L801.233 22.5496L801.233 27.3816ZM762.576 27.3816L757.744 27.3816L757.744 22.5496L762.576 22.5496L762.576 27.3816ZM909.954 27.3816L914.786 27.3816L914.786 22.5496L909.954 22.5496L909.954 27.3816ZM827.809 27.3816L822.977 27.3816L822.977 22.5496L827.809 22.5496L827.809 27.3816ZM866.466 27.3816L871.298 27.3816L871.298 22.5496L866.466 22.5496L866.466 27.3816ZM784.321 27.3816L779.489 27.3816L779.489 22.5496L784.321 22.5496L784.321 27.3816ZM736 27.3816L740.832 27.3816L740.832 22.5496L736 22.5496L736 27.3816ZM736 4.83201L740.832 4.83201L740.832 -4.76261e-05L736 -4.80485e-05L736 4.83201ZM762.576 4.83202L757.744 4.83202L757.744 -4.61476e-05L762.576 -4.57251e-05L762.576 4.83202ZM801.233 4.83202L806.065 4.83202L806.065 -4.19232e-05L801.233 -4.23457e-05L801.233 4.83202ZM844.721 4.83202L849.553 4.83202L849.553 -4.57508e-05L844.721 -4.61732e-05L844.721 4.83202ZM931.698 4.83202L936.531 4.83202L936.531 -4.57764e-05L931.698 -4.61988e-05L931.698 4.83202ZM893.042 4.83202L888.21 4.83202L888.21 -4.23713e-05L893.042 -4.19489e-05L893.042 4.83202ZM909.954 4.83202L914.786 4.83202L914.786 -4.00479e-05L909.954 -4.04703e-05L909.954 4.83202ZM827.809 4.83201L822.977 4.83201L822.977 -4.80741e-05L827.809 -4.76517e-05L827.809 4.83201ZM866.466 4.83202L871.298 4.83202L871.298 -4.38498e-05L866.466 -4.42722e-05L866.466 4.83202ZM784.321 4.83202L779.489 4.83202L779.489 -4.42466e-05L784.321 -4.38242e-05L784.321 4.83202Z" fill="currentColor" fill-opacity="0.11"/>
</svg>
