<svg width="164" height="48" viewBox="0 0 164 48" xmlns="http://www.w3.org/2000/svg">
<path fill-rule="evenodd" clip-rule="evenodd" d="M122.759 29.5518C123.471 28.8734 124.033 28.0934 124.386 27.1703C124.744 26.2472 124.898 25.3241 124.898 24.3041V23.8657C124.898 23.7641 124.898 23.5241 124.744 23.1826L121.992 22.8411V21.8211H131.512V22.8411L128.561 23.1826C127.952 24.6411 127.236 26.0026 126.422 27.1703C125.604 28.4349 124.637 29.4549 123.675 30.4749C125.353 32.3718 126.883 33.7334 128.305 34.6564C129.732 35.4364 131.057 35.9211 132.479 35.9211H132.582V36.9411H121.621C120.868 35.9303 120.115 35.1734 119.296 34.218C118.088 34.8872 117.033 35.5611 115.977 35.9995C113.848 36.8718 111.571 37.3795 109.27 37.3795C106.969 37.3795 105.147 36.798 103.817 35.778C102.497 34.6564 101.781 33.2026 101.781 31.3564C101.781 29.6534 102.497 28.098 103.817 26.6857C105.142 25.2272 107.127 23.9626 109.772 22.8457C109.419 22.1672 109.061 21.4841 108.907 20.9026C108.703 20.2241 108.549 19.6888 108.549 19.1072C108.549 18.0872 108.805 17.0626 109.265 16.1395C110.855 12.9318 115.131 11.0349 118.581 11.0349C119.854 11.0349 120.923 11.2795 121.788 11.8149C122.499 12.498 122.959 13.3241 122.959 14.3441C122.959 15.6088 122.248 16.7257 120.923 17.9903C119.547 19.3057 117.265 20.5749 115.475 21.2488C117.902 24.1795 120.091 26.8241 122.759 29.5611V29.5518ZM113.342 15.7934C113.342 16.4764 113.444 17.1549 113.695 17.838C114.053 18.5164 114.406 19.3426 114.866 20.1226C115.954 19.5549 116.814 19.0611 117.618 18.0826C118.227 17.4041 118.432 16.6241 118.432 15.798C118.432 11.4226 113.342 12.3457 113.342 15.798V15.7934ZM110.488 23.8657C109.27 24.6411 108.354 25.4672 107.838 26.2472C107.28 27.1703 106.922 28.0934 106.922 29.1134C106.922 30.6688 107.48 31.9334 108.805 32.9534C111.436 35.1503 115.345 34.6657 118.218 33.2995C118.218 33.2995 111.352 25.1026 110.483 23.8657H110.488ZM159.621 11.2749L159.974 10.5964L161.044 10.6934L159.872 17.7457H158.905L158.654 15.9457C158.552 14.778 157.841 13.8549 156.414 13.0795C155.089 12.1564 153.411 11.8149 151.524 11.8149C148.674 11.8149 146.383 12.8349 144.598 14.778C142.966 16.818 142.101 19.4441 142.101 22.7534C142.101 26.838 142.966 29.9949 144.598 32.2841C146.276 34.6657 148.67 35.7826 151.524 35.7826C152.849 35.7826 153.764 35.4411 154.276 34.9057C154.629 34.2272 154.838 32.718 154.838 30.3364V28.5364C154.838 27.8534 154.736 27.078 154.736 26.1549L154.633 26.0072L154.378 25.9103L151.882 25.5688V24.5488H163.898L164 25.5688L161.862 25.9103L161.606 26.0072V26.1549C161.504 26.9349 161.402 28.1949 161.402 29.898C161.299 31.5041 161.299 33.8811 161.299 36.8026C161.044 36.8026 160.583 36.7057 159.974 36.4611C159.263 36.3641 158.757 36.1195 158.296 36.0226C156.767 36.4611 155.345 36.8026 153.918 37.0472C152.495 37.2872 151.068 37.3841 149.743 37.3841C145.109 37.3841 141.544 36.2672 138.899 33.9826C136.402 31.698 135.129 28.5364 135.129 24.3088C135.129 20.0811 136.658 16.6288 139.508 14.0995C142.459 11.718 146.536 10.4534 151.882 10.4534C152.951 10.4534 154.276 10.6011 155.549 10.698C156.874 10.7949 158.194 11.0395 159.621 11.2795V11.2749ZM95.5152 11.2749L96.0265 10.5964L96.9423 10.6934L95.7662 17.7457H94.7994L94.5948 15.9457C94.4414 14.778 93.7302 13.8549 92.3032 13.0795C91.0295 12.1564 89.3514 11.8149 87.4642 11.8149C84.6147 11.8149 82.3231 12.8349 80.6403 14.778C78.86 16.818 78.0465 19.4441 78.0465 22.7534C78.0465 26.838 78.86 29.9949 80.5381 32.2841C82.2208 34.6657 84.6147 35.7826 87.5665 35.7826C88.7378 35.7826 89.7094 35.4411 90.1649 34.9057C90.6762 34.2272 90.8761 32.718 90.8761 30.3364C90.8761 29.8011 90.7738 29.2195 90.7738 28.5364C90.7738 27.8534 90.6762 27.078 90.6762 26.1549L90.5228 26.0072L90.3183 25.9103L87.8221 25.5688V24.5488H99.8893V25.5688L97.8022 25.9103L97.6999 26.0072L97.5466 26.1549C97.4396 26.9349 97.342 28.1949 97.342 29.898C97.1886 31.5041 97.1886 33.8811 97.1886 36.8026C96.933 36.8026 96.4728 36.7057 95.8638 36.4611C95.1526 36.3641 94.6924 36.1195 94.2322 36.0226C92.8098 36.4611 91.2294 36.8026 89.8023 37.0472C88.3799 37.2872 86.9529 37.3841 85.6792 37.3841C80.9936 37.3841 77.433 36.2672 74.9368 33.9826C72.343 31.698 71.1158 28.5364 71.1158 24.3088C71.1158 20.0811 72.5428 16.6288 75.4434 14.0995C78.3952 11.718 82.4207 10.4534 87.8175 10.4534C88.9889 10.4534 90.1603 10.6011 91.4804 10.698C92.8052 10.7949 94.2276 11.0395 95.5013 11.2795L95.5152 11.2749Z"/>
<path fill-rule="evenodd" clip-rule="evenodd" d="M19.4628 16.4718L33.91 1.97028C36.5503 -0.678954 40.8919 -0.646646 43.5229 2.0072L60.4524 19.098C63.0834 21.7518 63.0834 26.0995 60.4524 28.758L43.5229 45.8487C40.8919 48.5072 36.6201 48.4703 33.9519 45.8487L32.7015 44.621L48.4409 28.9149C51.1045 26.261 51.1045 21.9134 48.4409 19.2549L35.7183 6.54412L19.1979 23.0349C18.9236 23.3303 18.9004 23.6534 19.17 23.9672L25.7242 30.5441L34.5934 21.7103L36.964 24.0826C37.215 24.3503 37.2197 24.581 37.0012 24.7749L25.6127 36.1426L24.8457 36.9087L23.9904 36.0687L20.7225 32.8518C18.5239 30.6503 16.4553 28.5134 15.8464 27.6641C13.9824 25.5826 14.159 21.9226 16.0509 20.0764C16.4693 19.5641 17.7662 18.2072 19.4628 16.4764V16.4718Z" fill="currentColor"/>
<path fill-rule="evenodd" clip-rule="evenodd" d="M1.99414 19.2549L19.1188 2.16413C21.7824 -0.494327 26.1379 -0.494327 28.7968 2.16413L30.0007 3.36413C28.6341 4.75798 15.0887 18.1749 13.5361 20.0672C11.9835 21.9641 11.8673 25.6288 13.3316 27.6549C14.7958 29.6811 24.5946 39.1057 24.5946 39.1057L39.1162 24.6134C39.2371 24.4841 39.2324 24.3411 39.079 24.1749L34.5654 19.6703L25.8404 28.3795C24.2228 26.7641 23.1118 25.5688 21.4942 23.9534C21.2478 23.6441 21.2199 23.3303 21.4709 23.0211L35.6299 8.88875L45.9261 19.2503C48.5896 21.9041 48.5896 26.2518 45.9261 28.9103L28.8014 46.0011C26.1379 48.6595 21.7824 48.6595 19.1235 46.0011L1.99414 28.9149C-0.669392 26.2564 -0.669392 21.9134 1.99414 19.2549Z" fill="currentColor"/>
</svg>
