<svg width="102" height="30" viewBox="0 0 102 30" xmlns="http://www.w3.org/2000/svg">
<path fill-rule="evenodd" clip-rule="evenodd" d="M23.7776 -0.000488281H0.259778V5.10245H17.8207L0.756744 23.1039C0.749657 23.111 0.743188 23.1181 0.737014 23.1248C0.731379 23.131 0.72599 23.1369 0.720601 23.1423L0.63702 23.2304C0.241706 23.6822 0 24.2695 0 24.9156C0 26.3252 1.14302 27.4659 2.55034 27.4659H23.2648V22.363H8.60429L25.4424 4.48124C25.9845 4.01364 26.3279 3.32241 26.3279 2.54985C26.3279 1.14027 25.1849 -0.000488281 23.7776 -0.000488281ZM99.2938 -0.000488281C99.2644 -0.000488281 99.2373 0.00177065 99.2102 0.00402959C98.345 -0.0230776 97.4889 0.38579 96.9852 1.16512L88.9004 13.6457L80.8157 1.16512C80.312 0.38579 79.4536 -0.0230776 78.5906 0.00402959C78.576 0.00402959 78.5619 0.00290129 78.5477 0.00177241L78.5477 0.00177065L78.5477 0.0017689C78.5336 0.000640015 78.5195 -0.000488281 78.5048 -0.000488281C77.0952 -0.000488281 75.9545 1.14253 75.9545 2.54985V22.6205H81.0574V10.9192L86.7386 19.6861C87.5044 20.8676 89.0834 21.2064 90.2671 20.4406C90.7482 20.1289 91.6112 18.8481 91.7444 18.6403L96.748 10.9192V22.6205H101.851V2.54985C101.851 1.14027 100.708 -0.000488281 99.3006 -0.000488281H99.2938ZM102 23.515H76.1058V29.0178H102V23.515ZM84.8841 27.7573L84.8836 27.7576L84.8027 27.4298C84.6378 27.5088 84.3848 27.5608 84.1296 27.5608C83.3593 27.5608 82.912 27.0638 82.912 26.2822C82.912 25.4487 83.4067 24.972 84.1522 24.972C84.4165 24.972 84.6378 25.0285 84.7892 25.1031L84.8931 24.7687C84.7847 24.7123 84.5294 24.6264 84.1386 24.6264C83.1515 24.6264 82.4783 25.2476 82.4783 26.2958C82.4783 27.3439 83.1469 27.9087 84.0437 27.9087C84.4318 27.9087 84.7366 27.832 84.8836 27.7576L84.8841 27.7596V27.7573ZM85.4013 27.8545V27.8567L85.3968 27.8545H85.4013ZM85.4013 27.8545V24.6784H85.8531L86.8674 26.2867C87.0978 26.6595 87.2876 26.9938 87.4321 27.3191L87.4457 27.3146C87.4073 26.8899 87.3982 26.5036 87.3982 26.0089V24.6784H87.7845V27.8567H87.3689L86.3591 26.2438C86.1378 25.8892 85.9254 25.5277 85.7696 25.1821L85.756 25.1866C85.7786 25.5865 85.7831 25.9682 85.7831 26.4968V27.8545H85.4013ZM89.5014 27.5834C89.084 27.5834 88.7298 27.3513 88.7198 26.7927H90.3214C90.3304 26.7453 90.3349 26.6843 90.3349 26.5985C90.3349 26.1783 90.1429 25.5277 89.3929 25.5277C88.7288 25.5277 88.3222 26.0676 88.3222 26.7543C88.3222 27.4411 88.7424 27.9087 89.4449 27.9087C89.8086 27.9087 90.0616 27.8273 90.2084 27.7618L90.1339 27.4659C89.9825 27.5314 89.7995 27.5834 89.5014 27.5834ZM89.9373 26.4923C89.9419 26.2325 89.8289 25.8237 89.3613 25.8237C88.9366 25.8237 88.7582 26.2054 88.7243 26.4923H89.9373ZM91.3243 26.734L91.0171 25.5729H90.5924L91.2814 27.8544H91.6586L92.0268 26.7702C92.1081 26.5239 92.1782 26.289 92.2346 26.0157H92.2437C92.3001 26.2845 92.3679 26.5104 92.447 26.7656L92.7948 27.8544H93.1721L93.9085 25.5729H93.4974L93.1721 26.7182C93.0975 26.987 93.0366 27.2287 92.9982 27.4591H92.9846C92.9326 27.2287 92.8671 26.987 92.7813 26.7137L92.4266 25.5729H92.0788L91.706 26.7385C91.6292 26.9825 91.5547 27.2287 91.5027 27.4591H91.4892C91.4555 27.2747 91.4106 27.0902 91.3634 26.8959L91.3634 26.8957L91.3443 26.8173L91.3243 26.734ZM94.2361 27.4365C94.3626 27.5111 94.5794 27.5969 94.7873 27.5969C95.0832 27.5969 95.2255 27.4501 95.2255 27.2581C95.2255 27.0661 95.108 26.9554 94.8053 26.8424C94.3897 26.6911 94.1977 26.4697 94.1977 26.1964C94.1977 25.8282 94.5004 25.5277 94.9861 25.5277C95.2165 25.5277 95.4198 25.5887 95.5418 25.6701L95.4424 25.9728C95.352 25.9163 95.1871 25.835 94.9748 25.835C94.7285 25.835 94.5975 25.9773 94.5975 26.1467C94.5975 26.3342 94.7285 26.42 95.0267 26.5375C95.4175 26.6843 95.6253 26.8808 95.6253 27.2219C95.6253 27.6286 95.3091 27.9109 94.776 27.9109C94.5252 27.9109 94.2948 27.8454 94.1344 27.7505L94.2338 27.4388L94.2361 27.4365ZM37.4238 28.993C29.6711 28.993 23.3619 22.686 23.3619 14.9311C23.3619 7.17615 29.6711 0.871464 37.4238 0.871464C40.5954 0.871464 43.5907 1.90154 46.0823 3.85326L44.6908 5.6333C42.599 3.99783 40.0871 3.13266 37.4238 3.13266C30.9158 3.13266 25.6209 8.42761 25.6209 14.9356C25.6209 21.4436 30.9158 26.7385 37.4238 26.7385C43.9318 26.7385 49.2087 21.4255 49.2245 14.8972H49.2245C49.2416 9.36373 53.7439 4.86526 59.2768 4.86526C64.8202 4.86526 69.3403 9.37862 69.3403 14.9288C69.3403 20.479 64.827 24.9924 59.2768 24.9924L59.279 24.9946C57.639 24.9946 56.0126 24.5903 54.5714 23.8268L55.6286 21.8299C56.7445 22.4217 58.005 22.7334 59.2768 22.7334C63.58 22.7334 67.0814 19.2321 67.0814 14.9288C67.0814 10.6255 63.58 7.1242 59.2768 7.1242C54.9735 7.1242 51.4834 10.6255 51.4834 14.9288H51.4833C51.4519 22.6904 45.1479 28.9997 37.4238 28.9997V28.993ZM59.2835 28.993C56.8235 28.993 54.4042 28.3492 52.2831 27.1294L53.408 25.1709C55.1858 26.1942 57.2166 26.734 59.2813 26.734C65.7893 26.734 71.0842 21.4391 71.0842 14.9311C71.0842 8.4231 65.7893 3.12815 59.2813 3.12815C52.7868 3.12815 47.5183 8.41912 47.4808 14.9288H47.4828C47.4828 20.4768 42.974 24.9924 37.4306 24.9924V24.9946C31.8826 24.9946 27.367 20.4813 27.367 14.9311C27.367 9.38087 31.8804 4.86752 37.4306 4.86752C39.0706 4.86752 40.697 5.27187 42.1382 6.03313L42.1924 6.0625L43.6065 6.91412L42.4409 8.85003L41.0539 8.01422C39.9448 7.43141 38.6933 7.1242 37.4306 7.1242C33.1273 7.1242 29.626 10.6255 29.626 14.9288C29.626 19.2321 33.1273 22.7334 37.4306 22.7334C41.7225 22.7334 45.2056 19.2505 45.2238 14.9627L45.2216 14.9627C45.2397 7.18972 51.5489 0.866955 59.2813 0.866955C67.0136 0.866955 73.3431 7.1739 73.3431 14.9288C73.3431 22.6838 67.0362 28.9907 59.2813 28.9907L59.2835 28.993Z" fill="currentColor"/>
</svg>
