<svg xmlns="http://www.w3.org/2000/svg" xmlns:xlink="http://www.w3.org/1999/xlink"><defs><clipPath id="clip0_107_1981"><path fill="currentColor" d="M0 0h31v31H0z"/></clipPath></defs><symbol id="adv-1" viewBox="0 0 30 36"><path fill-rule="evenodd" clip-rule="evenodd" d="M27.307 17.162l-3.1 2.755-1.665 3.795-4.124.417-3.58 2.09-3.58-2.09-4.124-.417-1.666-3.796-3.1-2.754.885-4.052-.885-4.052 3.1-2.755 1.666-3.795 4.124-.417L14.838 0l3.58 2.09 4.124.418 1.666 3.795 3.1 2.755-.885 4.052.884 4.052zm-3.938-4.309c0-4.704-3.827-8.531-8.531-8.531-4.704 0-8.531 3.827-8.531 8.531 0 4.705 3.827 8.531 8.53 8.531 4.705 0 8.532-3.827 8.532-8.53zm-8.531 6.454a6.461 6.461 0 006.454-6.454A6.461 6.461 0 0014.838 6.4a6.461 6.461 0 00-6.454 6.454 6.461 6.461 0 006.454 6.454zm-2.463-7.508l1.61 1.61 3.316-3.315 1.469 1.469-4.785 4.784-3.08-3.08 1.47-1.468zm-7.7 11.387l1.07 2.435 4.867.492 3.256 1.902L9.159 36l-3.037-4.907L0 31.275l4.676-8.09zm19.256 2.435L25 23.186l4.675 8.089-6.121-.182L20.516 36l-4.708-7.985 3.256-1.902 4.867-.492z" fill="currentColor"/></symbol><symbol id="adv-2" viewBox="0 0 31 31"><g clip-path="url(#clip0_107_1981)" fill="currentColor"><path d="M7.133 7.418c1.144 1.144 2.86 1.407 4.198 1.407.531 0 1.002-.041 1.354-.086.869 1.413 1.773 3.059 1.896 5.88a15.365 15.365 0 00-7.783 2.64l3.037 2.122c.605.445 1.388.52 2.096.308a3.743 3.743 0 014.112 1.877 1.936 1.936 0 001.7 1.018h1.125c.56 0 1.09-.242 1.456-.665l.006-.007 4.027-4.545a15.356 15.356 0 00-7.939-2.749c.12-2.823.996-4.414 1.896-5.879.352.045.824.086 1.355.086.669 0 1.432-.066 2.171-.275.74-.208 1.455-.56 2.027-1.132.874-.875 1.427-2.26 1.644-4.118.153-1.313.079-2.393.076-2.438a.908.908 0 00-.841-.84 14.302 14.302 0 00-2.439.074c-1.858.217-3.243.77-4.117 1.644-1.73 1.729-1.448 4.76-1.284 5.823-.468.756-.982 1.6-1.406 2.65-.424-1.049-.936-1.893-1.406-2.65.164-1.061.445-4.094-1.284-5.823C11.936.866 10.55.313 8.693.096A14.302 14.302 0 006.255.021a.908.908 0 00-.841.84c-.004.046-.078 1.126.075 2.44.217 1.858.77 3.242 1.644 4.117zm1.031 18.007c-1.181-.14-2.19-.396-3.085-.778l-3.474-1.44A15.423 15.423 0 000 30.092c0 .501.407.908.908.908h10.233v-2.248c0-1.694-1.28-3.124-2.977-3.327z"/><path d="M25.446 24.363l2.163-3.95a15.861 15.861 0 00-1.825-1.918l-4.09 4.618a3.744 3.744 0 01-2.826 1.287h-1.125a3.752 3.752 0 01-1.923-.53 3.755 3.755 0 01-1.378-1.446c-.45-.86-1.475-1.199-2.379-.902a4.105 4.105 0 01-3.271-.653l-3.498-2.443a15.718 15.718 0 00-2.778 3.192l3.263 1.354.01.003c.734.315 1.582.526 2.59.647 2.61.312 4.578 2.517 4.578 5.13V31h6.902v-1.899c0-.964.376-1.87 1.058-2.553a3.59 3.59 0 012.553-1.058c.809 0 1.565-.431 1.976-1.127z"/><path d="M28.771 22.072l-1.738 3.175a4.127 4.127 0 01-3.563 2.06c-.479 0-.929.186-1.268.526-.34.339-.526.79-.526 1.268V31h8.416a.909.909 0 00.908-.908 15.4 15.4 0 00-2.229-8.02z"/></g></symbol><symbol id="adv-3" viewBox="0 0 29 33"><path d="M26.12 5.615L23.386 2.88a.966.966 0 00-1.367 0l-.932.931A12.36 12.36 0 0017.4 2.285V.967A.966.966 0 0016.433 0h-3.866a.966.966 0 00-.967.967v1.318c-1.31.308-2.544.82-3.687 1.527l-.932-.931a.966.966 0 00-1.367 0L2.88 5.615a.967.967 0 000 1.367l.932.932a12.363 12.363 0 00-1.528 3.688H.967a.966.966 0 00-.967.966v3.868c0 .534.432.966.967.966h1.317c.282 1.19.734 2.455 1.349 3.515a.967.967 0 00.836.481H7.56c-.13-.176-.26-.355-.386-.5-1.465-1.69-2.34-4.163-2.34-6.396 0-5.33 4.336-9.668 9.666-9.668s9.667 4.337 9.667 9.668c0 2.207-.862 4.664-2.307 6.353-.135.159-.274.35-.412.543h3.083a.968.968 0 00.837-.481c.614-1.06 1.066-2.325 1.348-3.515h1.317a.966.966 0 00.967-.966v-3.868a.966.966 0 00-.967-.966h-1.318a12.359 12.359 0 00-1.527-3.688l.932-.932a.967.967 0 000-1.367z" fill="currentColor"/><path d="M12.567 31.066c0 1.066.867 1.934 1.933 1.934a1.936 1.936 0 001.933-1.934V30.1h-3.866v.966zM20.39 19.6c1.137-1.33 1.843-3.364 1.843-5.098 0-4.265-3.469-7.734-7.733-7.734-4.264 0-7.733 3.47-7.733 7.734 0 1.78.698 3.779 1.87 5.13.727.841 1.54 2.118 1.848 3.7h2.836l-1.702-8.64a.967.967 0 011.896-.38l.985 4.993.986-4.993a.957.957 0 011.137-.758.967.967 0 01.758 1.138l-1.702 8.64h2.844c.32-1.589 1.137-2.877 1.868-3.732zm-2.023 6.632v-.966h-7.734v.966c0 1.066.868 1.934 1.934 1.934h3.866a1.936 1.936 0 001.934-1.934z"/></symbol><symbol id="chevron-down" viewBox="0 0 19 11"><path d="M1 1l8.5 8.5L18 1" fill="transparent" stroke="currentColor" stroke-width="2"/></symbol><symbol id="chevron-left" viewBox="0 0 18 32"><path d="M17 1L2 16l14.5 14.5" fill="transparent" stroke="currentColor" stroke-width="2"/></symbol><symbol id="chevron-right" viewBox="0 0 18 32"><path d="M1 1l15 15L1.5 30.5" fill="transparent" stroke="currentColor" stroke-width="2"/></symbol><symbol id="dots-1" viewBox="0 0 123 422"><path fill-rule="evenodd" clip-rule="evenodd" d="M122.412 0v4.832h-4.832V0h4.832zm0 86.977v4.832h-4.832v-4.832h4.832zm0-38.656v-4.832h-4.832v4.832h4.832zm0 82.145v4.832h-4.832v-4.832h4.832zm0 48.32v-4.832h-4.832v4.832h4.832zm0-157.042v4.832h-4.832v-4.832h4.832zm0 91.809v-4.832h-4.832v4.832h4.832zm0-48.32v4.832h-4.832v-4.832h4.832zm0 91.809v-4.832h-4.832v4.832h4.832zm0 38.656v4.833h-4.832v-4.833h4.832zM99.862 0v4.832h-4.831V0h4.832zm0 86.977v4.832h-4.831v-4.832h4.832zm0-38.656v-4.832h-4.831v4.832h4.832zm0 82.145v4.832h-4.831v-4.832h4.832zm0 48.32v-4.832h-4.831v4.832h4.832zm0-157.042v4.832h-4.831v-4.832h4.832zm0 91.809v-4.832h-4.831v4.832h4.832zm0-48.32v4.832h-4.831v-4.832h4.832zm0 91.809v-4.832h-4.831v4.832h4.832zm0 38.656v4.833h-4.831v-4.833h4.832zm-24.965 0v4.833h-4.832v-4.833h4.832zm0-16.912v-4.832h-4.832v4.832h4.832zm0-48.32v4.832h-4.832v-4.832h4.832zm0-43.489v4.832h-4.832v-4.832h4.832zm0-86.977v4.832h-4.832V0h4.832zm0 48.32v-4.83h-4.832v4.832h4.832zm0-26.576v4.832h-4.832v-4.832h4.832zm0 91.809v-4.832h-4.832v4.832h4.832zm0-48.32v4.832h-4.832v-4.832h4.832zm0 91.809v-4.832h-4.832v4.832h4.832zm-22.55 38.656v4.833h-4.832v-4.833h4.832zm0-16.912v-4.832h-4.832v4.832h4.832zm0-48.32v4.832h-4.832v-4.832h4.832zm0-43.489v4.832h-4.832v-4.832h4.832zm0-86.977v4.832h-4.832V0h4.832zm0 48.32v-4.83h-4.832v4.832h4.832zm0-26.576v4.832h-4.832v-4.832h4.832zm0 91.809v-4.832h-4.832v4.832h4.832zm0-48.32v4.832h-4.832v-4.832h4.832zm0 91.809v-4.832h-4.832v4.832h4.832zm-24.965 43.489v-4.833H22.55v4.833h4.832zm0-26.577v4.832H22.55v-4.832h4.832zm0-38.656v-4.832H22.55v4.832h4.832zm0-43.489v-4.832H22.55v4.832h4.832zm0-86.977V0H22.55v4.832h4.832zm0 38.657v4.832H22.55v-4.832h4.832zm0-16.913v-4.832H22.55v4.832h4.832zm0 82.145v4.832H22.55v-4.832h4.832zm0-38.656v-4.832H22.55v4.832h4.832zm0 82.145v4.832H22.55v-4.832h4.832zm-22.55 48.321v-4.833H0v4.833h4.832zm0-26.577v4.832H0v-4.832h4.832zm0-38.656v-4.832H0v4.832h4.832zm0-43.489v-4.832H0v4.832h4.832zm0-86.977V0H0v4.832h4.832zm0 38.657v4.832H0v-4.832h4.832zm0-16.913v-4.832H0v4.832h4.832zm0 82.145v4.832H0v-4.832h4.832zm0-38.656v-4.832H0v4.832h4.832zm0 82.145v4.832H0v-4.832h4.832zm117.58 69.259v4.833h-4.832v-4.833h4.832zm0 86.978v4.832h-4.832v-4.832h4.832zm0-38.657v-4.832h-4.832v4.832h4.832zm0 82.145v4.832h-4.832v-4.832h4.832zm0 48.321v-4.832h-4.832v4.832h4.832zm0-157.042v4.832h-4.832v-4.832h4.832zm0 91.809v-4.832h-4.832v4.832h4.832zm0-48.321v4.832h-4.832v-4.832h4.832zm0 91.809v-4.832h-4.832v4.832h4.832zm0 38.657V422h-4.832v-4.832h4.832zm-22.55-195.699v4.833h-4.831v-4.833h4.832zm0 86.978v4.832h-4.831v-4.832h4.832zm0-38.657v-4.832h-4.831v4.832h4.832zm0 82.145v4.832h-4.831v-4.832h4.832zm0 48.321v-4.832h-4.831v4.832h4.832zm0-157.042v4.832h-4.831v-4.832h4.832zm0 91.809v-4.832h-4.831v4.832h4.832zm0-48.321v4.832h-4.831v-4.832h4.832zm0 91.809v-4.832h-4.831v4.832h4.832zm0 38.657V422h-4.831v-4.832h4.832zm-24.965 0V422h-4.832v-4.832h4.832zm0-16.912v-4.832h-4.832v4.832h4.832zm0-48.321v4.832h-4.832v-4.832h4.832zm0-43.488v4.832h-4.832v-4.832h4.832zm0-86.978v4.833h-4.832v-4.833h4.832zm0 48.321v-4.832h-4.832v4.832h4.832zm0-26.576v4.832h-4.832v-4.832h4.832zm0 91.809v-4.832h-4.832v4.832h4.832zm0-48.321v4.832h-4.832v-4.832h4.832zm0 91.809v-4.832h-4.832v4.832h4.832zm-22.55 38.657V422h-4.832v-4.832h4.832zm0-16.912v-4.832h-4.832v4.832h4.832zm0-48.321v4.832h-4.832v-4.832h4.832zm0-43.488v4.832h-4.832v-4.832h4.832zm0-86.978v4.833h-4.832v-4.833h4.832zm0 48.321v-4.832h-4.832v4.832h4.832zm0-26.576v4.832h-4.832v-4.832h4.832zm0 91.809v-4.832h-4.832v4.832h4.832zm0-48.321v4.832h-4.832v-4.832h4.832zm0 91.809v-4.832h-4.832v4.832h4.832zM27.382 226.302v-4.833H22.55v4.833h4.832zm0 86.977v-4.832H22.55v4.832h4.832zm0-48.321v4.832H22.55v-4.832h4.832zm0 91.809v-4.832H22.55v4.832h4.832zm0 38.657v4.832H22.55v-4.832h4.832zm0-147.378v-4.832H22.55v4.832h4.832zm0 82.145v4.832H22.55v-4.832h4.832zm0-38.657v-4.832H22.55v4.832h4.832zm0 82.145v4.832H22.55v-4.832h4.832zm0 48.321v-4.832H22.55V422h4.832zm-22.55 0v-4.832H0V422h4.832zm0-26.576v4.832H0v-4.832h4.832zm0-38.657v-4.832H0v4.832h4.832zm0-43.488v-4.832H0v4.832h4.832zm0-86.977v-4.833H0v4.833h4.832zm0 38.656v4.832H0v-4.832h4.832zm0-16.912v-4.832H0v4.832h4.832zm0 82.145v4.832H0v-4.832h4.832zm0-38.657v-4.832H0v4.832h4.832zm0 82.145v4.832H0v-4.832h4.832z" fill="currentColor" fill-opacity=".25"/></symbol><symbol id="dots-2" viewBox="0 0 949 123"><path fill-rule="evenodd" clip-rule="evenodd" d="M276 122.412h-4.832v-4.832H276v4.832zm-86.977 0h-4.832v-4.832h4.832v4.832zm38.656 0h4.832v-4.832h-4.832v4.832zm-82.145 0h-4.832v-4.832h4.832v4.832zm-48.32 0h4.832v-4.832h-4.832v4.832zm157.042 0h-4.832v-4.832h4.832v4.832zm-91.809 0h4.832v-4.832h-4.832v4.832zm48.32 0h-4.832v-4.832h4.832v4.832zm-91.809 0h4.832v-4.832h-4.832v4.832zm-38.656 0h-4.833v-4.832h4.833v4.832zM276 99.862h-4.832v-4.831H276v4.832zm-86.977 0h-4.832v-4.831h4.832v4.832zm38.656 0h4.832v-4.831h-4.832v4.832zm-82.145 0h-4.832v-4.831h4.832v4.832zm-48.32 0h4.832v-4.831h-4.832v4.832zm157.042 0h-4.832v-4.831h4.832v4.832zm-91.809 0h4.832v-4.831h-4.832v4.832zm48.32 0h-4.832v-4.831h4.832v4.832zm-91.809 0h4.832v-4.831h-4.832v4.832zm-38.656 0h-4.833v-4.831h4.833v4.832zm0-24.965h-4.833v-4.832h4.833v4.832zm16.912 0h4.832v-4.832h-4.832v4.832zm48.32 0h-4.832v-4.832h4.832v4.832zm43.489 0h-4.832v-4.832h4.832v4.832zm86.977 0h-4.832v-4.832H276v4.832zm-48.321 0h4.832v-4.832h-4.832v4.832zm26.577 0h-4.832v-4.832h4.832v4.832zm-91.809 0h4.832v-4.832h-4.832v4.832zm48.32 0h-4.832v-4.832h4.832v4.832zm-91.809 0h4.832v-4.832h-4.832v4.832zm-38.656-22.55h-4.833v-4.832h4.833v4.832zm16.912 0h4.832v-4.832h-4.832v4.832zm48.32 0h-4.832v-4.832h4.832v4.832zm43.489 0h-4.832v-4.832h4.832v4.832zm86.977 0h-4.832v-4.832H276v4.832zm-48.321 0h4.832v-4.832h-4.832v4.832zm26.577 0h-4.832v-4.832h4.832v4.832zm-91.809 0h4.832v-4.832h-4.832v4.832zm48.32 0h-4.832v-4.832h4.832v4.832zm-91.809 0h4.832v-4.832h-4.832v4.832zM75.469 27.382h4.833V22.55h-4.833v4.832zm26.577 0h-4.832V22.55h4.832v4.832zm38.656 0h4.832V22.55h-4.832v4.832zm43.489 0h4.832V22.55h-4.832v4.832zm86.977 0H276V22.55h-4.832v4.832zm-38.657 0h-4.832V22.55h4.832v4.832zm16.913 0h4.832V22.55h-4.832v4.832zm-82.145 0h-4.832V22.55h4.832v4.832zm38.656 0h4.832V22.55h-4.832v4.832zm-82.145 0h-4.832V22.55h4.832v4.832zM75.47 4.832h4.832V0h-4.833v4.832zm26.576 0h-4.832V0h4.832v4.832zm38.656 0h4.832V0h-4.832v4.832zm43.489 0h4.832V0h-4.832v4.832zm86.977 0H276V0h-4.832v4.832zm-38.657 0h-4.832V0h4.832v4.832zm16.913 0h4.832V0h-4.832v4.832zm-82.145 0h-4.832V0h4.832v4.832zm38.656 0h4.832V0h-4.832v4.832zm-82.145 0h-4.832V0h4.832v4.832zm-69.26 117.58H49.7v-4.832h4.832v4.832zm-86.977 0h-4.832v-4.832h4.832v4.832zm38.657 0h4.832v-4.832H6.21v4.832zm-82.145 0h-4.832v-4.832h4.832v4.832zm-48.321 0h4.832v-4.832h-4.832v4.832zm157.042 0h-4.832v-4.832h4.832v4.832zm-91.809 0h4.832v-4.832h-4.832v4.832zm48.32 0h-4.831v-4.832h4.832v4.832zm-91.808 0h4.832v-4.832h-4.832v4.832zm-38.657 0H-146v-4.832h4.832v4.832zm195.699-22.55h-4.832v-4.831h4.832v4.832zm-86.978 0h-4.832v-4.831h4.832v4.832zm38.657 0h4.832v-4.831H6.21v4.832zm-82.145 0h-4.832v-4.831h4.832v4.832zm-48.321 0h4.832v-4.831h-4.832v4.832zm157.042 0h-4.832v-4.831h4.832v4.832zm-91.809 0h4.832v-4.831h-4.832v4.832zm48.32 0h-4.831v-4.831h4.832v4.832zm-91.808 0h4.832v-4.831h-4.832v4.832zm-38.657 0H-146v-4.831h4.832v4.832zm0-24.965H-146v-4.832h4.832v4.832zm16.912 0h4.832v-4.832h-4.832v4.832zm48.32 0h-4.831v-4.832h4.832v4.832zm43.49 0h-4.833v-4.832h4.832v4.832zm86.977 0h-4.832v-4.832h4.832v4.832zm-48.321 0h4.832v-4.832H6.21v4.832zm26.576 0h-4.832v-4.832h4.832v4.832zm-91.809 0h4.832v-4.832h-4.832v4.832zm48.32 0h-4.831v-4.832h4.832v4.832zm-91.808 0h4.832v-4.832h-4.832v4.832zm-38.657-22.55H-146v-4.832h4.832v4.832zm16.912 0h4.832v-4.832h-4.832v4.832zm48.32 0h-4.831v-4.832h4.832v4.832zm43.49 0h-4.833v-4.832h4.832v4.832zm86.977 0h-4.832v-4.832h4.832v4.832zm-48.321 0h4.832v-4.832H6.21v4.832zm26.576 0h-4.832v-4.832h4.832v4.832zm-91.809 0h4.832v-4.832h-4.832v4.832zm48.32 0h-4.831v-4.832h4.832v4.832zm-91.808 0h4.832v-4.832h-4.832v4.832zm152.21-24.965h4.832V22.55h-4.832v4.832zm-86.978 0h4.833V22.55h-4.833v4.832zm48.321 0H6.21V22.55h4.832v4.832zm-91.81 0h4.833V22.55h-4.832v4.832zm-38.656 0h-4.832V22.55h4.832v4.832zm147.378 0h4.832V22.55h-4.832v4.832zm-82.145 0h-4.832V22.55h4.832v4.832zm38.657 0h4.832V22.55h-4.832v4.832zm-82.145 0h-4.832V22.55h4.832v4.832zm-48.321 0h4.832V22.55H-146v4.832zm0-22.55h4.832V0H-146v4.832zm26.576 0h-4.832V0h4.832v4.832zm38.657 0h4.832V0h-4.832v4.832zm43.488 0h4.833V0h-4.833v4.832zm86.978 0h4.832V0h-4.832v4.832zm-38.657 0H6.21V0h4.832v4.832zm16.912 0h4.832V0h-4.832v4.832zm-82.145 0h-4.832V0h4.832v4.832zm38.657 0h4.832V0h-4.832v4.832zm-82.145 0h-4.832V0h4.832v4.832zM717 122.412h-4.832v-4.832H717v4.832zm-86.977 0h-4.832v-4.832h4.832v4.832zm38.656 0h4.832v-4.832h-4.832v4.832zm-82.145 0h-4.832v-4.832h4.832v4.832zm-48.32 0h4.832v-4.832h-4.832v4.832zm157.042 0h-4.832v-4.832h4.832v4.832zm-91.809 0h4.832v-4.832h-4.832v4.832zm48.32 0h-4.832v-4.832h4.832v4.832zm-91.809 0h4.832v-4.832h-4.832v4.832zm-38.656 0h-4.833v-4.832h4.833v4.832zM717 99.862h-4.832v-4.831H717v4.832zm-86.977 0h-4.832v-4.831h4.832v4.832zm38.656 0h4.832v-4.831h-4.832v4.832zm-82.145 0h-4.832v-4.831h4.832v4.832zm-48.32 0h4.832v-4.831h-4.832v4.832zm157.042 0h-4.832v-4.831h4.832v4.832zm-91.809 0h4.832v-4.831h-4.832v4.832zm48.32 0h-4.832v-4.831h4.832v4.832zm-91.809 0h4.832v-4.831h-4.832v4.832zm-38.656 0h-4.833v-4.831h4.833v4.832zm0-24.965h-4.833v-4.832h4.833v4.832zm16.912 0h4.832v-4.832h-4.832v4.832zm48.32 0h-4.832v-4.832h4.832v4.832zm43.489 0h-4.832v-4.832h4.832v4.832zm86.977 0h-4.832v-4.832H717v4.832zm-48.321 0h4.832v-4.832h-4.832v4.832zm26.577 0h-4.832v-4.832h4.832v4.832zm-91.809 0h4.832v-4.832h-4.832v4.832zm48.32 0h-4.832v-4.832h4.832v4.832zm-91.809 0h4.832v-4.832h-4.832v4.832zm-38.656-22.55h-4.833v-4.832h4.833v4.832zm16.912 0h4.832v-4.832h-4.832v4.832zm48.32 0h-4.832v-4.832h4.832v4.832zm43.489 0h-4.832v-4.832h4.832v4.832zm86.977 0h-4.832v-4.832H717v4.832zm-48.321 0h4.832v-4.832h-4.832v4.832zm26.577 0h-4.832v-4.832h4.832v4.832zm-91.809 0h4.832v-4.832h-4.832v4.832zm48.32 0h-4.832v-4.832h4.832v4.832zm-91.809 0h4.832v-4.832h-4.832v4.832zm-43.489-24.965h4.833V22.55h-4.833v4.832zm26.577 0h-4.832V22.55h4.832v4.832zm38.656 0h4.832V22.55h-4.832v4.832zm43.489 0h4.832V22.55h-4.832v4.832zm86.977 0H717V22.55h-4.832v4.832zm-38.657 0h-4.832V22.55h4.832v4.832zm16.913 0h4.832V22.55h-4.832v4.832zm-82.145 0h-4.832V22.55h4.832v4.832zm38.656 0h4.832V22.55h-4.832v4.832zm-82.145 0h-4.832V22.55h4.832v4.832zm-48.321-22.55h4.833V0h-4.833v4.832zm26.577 0h-4.832V0h4.832v4.832zm38.656 0h4.832V0h-4.832v4.832zm43.489 0h4.832V0h-4.832v4.832zm86.977 0H717V0h-4.832v4.832zm-38.657 0h-4.832V0h4.832v4.832zm16.913 0h4.832V0h-4.832v4.832zm-82.145 0h-4.832V0h4.832v4.832zm38.656 0h4.832V0h-4.832v4.832zm-82.145 0h-4.832V0h4.832v4.832zm-69.259 117.58h-4.833v-4.832h4.833v4.832zm-86.978 0h-4.832v-4.832h4.832v4.832zm38.657 0h4.832v-4.832h-4.832v4.832zm-82.145 0h-4.832v-4.832h4.832v4.832zm-48.321 0h4.832v-4.832h-4.832v4.832zm157.042 0h-4.832v-4.832h4.832v4.832zm-91.809 0h4.832v-4.832h-4.832v4.832zm48.321 0h-4.832v-4.832h4.832v4.832zm-91.809 0h4.832v-4.832h-4.832v4.832zm-38.657 0H295v-4.832h4.832v4.832zm195.699-22.55h-4.833v-4.831h4.833v4.832zm-86.978 0h-4.832v-4.831h4.832v4.832zm38.657 0h4.832v-4.831h-4.832v4.832zm-82.145 0h-4.832v-4.831h4.832v4.832zm-48.321 0h4.832v-4.831h-4.832v4.832zm157.042 0h-4.832v-4.831h4.832v4.832zm-91.809 0h4.832v-4.831h-4.832v4.832zm48.321 0h-4.832v-4.831h4.832v4.832zm-91.809 0h4.832v-4.831h-4.832v4.832zm-38.657 0H295v-4.831h4.832v4.832zm0-24.965H295v-4.832h4.832v4.832zm16.912 0h4.832v-4.832h-4.832v4.832zm48.321 0h-4.832v-4.832h4.832v4.832zm43.488 0h-4.832v-4.832h4.832v4.832zm86.978 0h-4.833v-4.832h4.833v4.832zm-48.321 0h4.832v-4.832h-4.832v4.832zm26.576 0h-4.832v-4.832h4.832v4.832zm-91.809 0h4.832v-4.832h-4.832v4.832zm48.321 0h-4.832v-4.832h4.832v4.832zm-91.809 0h4.832v-4.832h-4.832v4.832zm-38.657-22.55H295v-4.832h4.832v4.832zm16.912 0h4.832v-4.832h-4.832v4.832zm48.321 0h-4.832v-4.832h4.832v4.832zm43.488 0h-4.832v-4.832h4.832v4.832zm86.978 0h-4.833v-4.832h4.833v4.832zm-48.321 0h4.832v-4.832h-4.832v4.832zm26.576 0h-4.832v-4.832h4.832v4.832zm-91.809 0h4.832v-4.832h-4.832v4.832zm48.321 0h-4.832v-4.832h4.832v4.832zm-91.809 0h4.832v-4.832h-4.832v4.832zm152.209-24.965h4.833V22.55h-4.833v4.832zm-86.977 0h4.832V22.55h-4.832v4.832zm48.321 0h-4.832V22.55h4.832v4.832zm-91.809 0h4.832V22.55h-4.832v4.832zm-38.657 0h-4.832V22.55h4.832v4.832zm147.378 0h4.832V22.55h-4.832v4.832zm-82.145 0h-4.832V22.55h4.832v4.832zm38.657 0h4.832V22.55h-4.832v4.832zm-82.145 0h-4.832V22.55h4.832v4.832zm-48.321 0h4.832V22.55H295v4.832zm0-22.55h4.832V0H295v4.832zm26.576 0h-4.832V0h4.832v4.832zm38.657 0h4.832V0h-4.832v4.832zm43.488 0h4.832V0h-4.832v4.832zm86.977 0h4.833V0h-4.833v4.832zm-38.656 0h-4.832V0h4.832v4.832zm16.912 0h4.832V0h-4.832v4.832zm-82.145 0h-4.832V0h4.832v4.832zm38.657 0h4.832V0h-4.832v4.832zm-82.145 0h-4.832V0h4.832v4.832zm593.21 117.58h-4.833v-4.832h4.833v4.832zm-86.978 0h-4.832v-4.832h4.832v4.832zm38.657 0h4.832v-4.832h-4.832v4.832zm-82.145 0h-4.832v-4.832h4.832v4.832zm-48.321 0h4.832v-4.832h-4.832v4.832zm157.042 0h-4.832v-4.832h4.832v4.832zm-91.809 0h4.832v-4.832h-4.832v4.832zm48.321 0h-4.832v-4.832h4.832v4.832zm-91.809 0h4.832v-4.832h-4.832v4.832zm-38.657 0H736v-4.832h4.832v4.832zm195.699-22.55h-4.833v-4.831h4.833v4.832zm-86.978 0h-4.832v-4.831h4.832v4.832zm38.657 0h4.832v-4.831h-4.832v4.832zm-82.145 0h-4.832v-4.831h4.832v4.832zm-48.321 0h4.832v-4.831h-4.832v4.832zm157.042 0h-4.832v-4.831h4.832v4.832zm-91.809 0h4.832v-4.831h-4.832v4.832zm48.321 0h-4.832v-4.831h4.832v4.832zm-91.809 0h4.832v-4.831h-4.832v4.832zm-38.657 0H736v-4.831h4.832v4.832zm0-24.965H736v-4.832h4.832v4.832zm16.912 0h4.832v-4.832h-4.832v4.832zm48.321 0h-4.832v-4.832h4.832v4.832zm43.488 0h-4.832v-4.832h4.832v4.832zm86.978 0h-4.833v-4.832h4.833v4.832zm-48.321 0h4.832v-4.832h-4.832v4.832zm26.576 0h-4.832v-4.832h4.832v4.832zm-91.809 0h4.832v-4.832h-4.832v4.832zm48.321 0h-4.832v-4.832h4.832v4.832zm-91.809 0h4.832v-4.832h-4.832v4.832zm-38.657-22.55H736v-4.832h4.832v4.832zm16.912 0h4.832v-4.832h-4.832v4.832zm48.321 0h-4.832v-4.832h4.832v4.832zm43.488 0h-4.832v-4.832h4.832v4.832zm86.978 0h-4.833v-4.832h4.833v4.832zm-48.321 0h4.832v-4.832h-4.832v4.832zm26.576 0h-4.832v-4.832h4.832v4.832zm-91.809 0h4.832v-4.832h-4.832v4.832zm48.321 0h-4.832v-4.832h4.832v4.832zm-91.809 0h4.832v-4.832h-4.832v4.832zm152.209-24.965h4.833V22.55h-4.833v4.832zm-86.977 0h4.832V22.55h-4.832v4.832zm48.321 0h-4.832V22.55h4.832v4.832zm-91.809 0h4.832V22.55h-4.832v4.832zm-38.657 0h-4.832V22.55h4.832v4.832zm147.378 0h4.832V22.55h-4.832v4.832zm-82.145 0h-4.832V22.55h4.832v4.832zm38.657 0h4.832V22.55h-4.832v4.832zm-82.145 0h-4.832V22.55h4.832v4.832zm-48.321 0h4.832V22.55H736v4.832zm0-22.55h4.832V0H736v4.832zm26.576 0h-4.832V0h4.832v4.832zm38.657 0h4.832V0h-4.832v4.832zm43.488 0h4.832V0h-4.832v4.832zm86.977 0h4.833V0h-4.833v4.832zm-38.656 0h-4.832V0h4.832v4.832zm16.912 0h4.832V0h-4.832v4.832zm-82.145 0h-4.832V0h4.832v4.832zm38.657 0h4.832V0h-4.832v4.832zm-82.145 0h-4.832V0h4.832v4.832z" fill="currentColor" fill-opacity=".11"/></symbol><symbol id="dots-3" viewBox="0 0 368 123"><path fill-rule="evenodd" clip-rule="evenodd" d="M422 122.412h-4.832v-4.832H422v4.832zm-86.977 0h-4.832v-4.832h4.832v4.832zm38.656 0h4.832v-4.832h-4.832v4.832zm-82.145 0h-4.832v-4.832h4.832v4.832zm-48.32 0h4.832v-4.832h-4.832v4.832zm157.042 0h-4.832v-4.832h4.832v4.832zm-91.809 0h4.832v-4.832h-4.832v4.832zm48.32 0h-4.832v-4.832h4.832v4.832zm-91.809 0h4.832v-4.832h-4.832v4.832zm-38.656 0h-4.833v-4.832h4.833v4.832zM422 99.862h-4.832V95.03H422v4.832zm-86.977 0h-4.832V95.03h4.832v4.832zm38.656 0h4.832V95.03h-4.832v4.832zm-82.145 0h-4.832V95.03h4.832v4.832zm-48.32 0h4.832V95.03h-4.832v4.832zm157.042 0h-4.832V95.03h4.832v4.832zm-91.809 0h4.832V95.03h-4.832v4.832zm48.32 0h-4.832V95.03h4.832v4.832zm-91.809 0h4.832V95.03h-4.832v4.832zm-38.656 0h-4.833V95.03h4.833v4.832zm0-24.965h-4.833v-4.832h4.833v4.832zm16.912 0h4.832v-4.832h-4.832v4.832zm48.32 0h-4.832v-4.832h4.832v4.832zm43.489 0h-4.832v-4.832h4.832v4.832zm86.977 0h-4.832v-4.832H422v4.832zm-48.321 0h4.832v-4.832h-4.832v4.832zm26.577 0h-4.832v-4.832h4.832v4.832zm-91.809 0h4.832v-4.832h-4.832v4.832zm48.32 0h-4.832v-4.832h4.832v4.832zm-91.809 0h4.832v-4.832h-4.832v4.832zm-38.656-22.55h-4.833v-4.832h4.833v4.832zm16.912 0h4.832v-4.832h-4.832v4.832zm48.32 0h-4.832v-4.832h4.832v4.832zm43.489 0h-4.832v-4.832h4.832v4.832zm86.977 0h-4.832v-4.832H422v4.832zm-48.321 0h4.832v-4.832h-4.832v4.832zm26.577 0h-4.832v-4.832h4.832v4.832zm-91.809 0h4.832v-4.832h-4.832v4.832zm48.32 0h-4.832v-4.832h4.832v4.832zm-91.809 0h4.832v-4.832h-4.832v4.832zm-43.489-24.966h4.833V22.55h-4.833v4.832zm26.577 0h-4.832V22.55h4.832v4.832zm38.656 0h4.832V22.55h-4.832v4.832zm43.489 0h4.832V22.55h-4.832v4.832zm86.977 0H422V22.55h-4.832v4.832zm-38.657 0h-4.832V22.55h4.832v4.832zm16.913 0h4.832V22.55h-4.832v4.832zm-82.145 0h-4.832V22.55h4.832v4.832zm38.656 0h4.832V22.55h-4.832v4.832zm-82.145 0h-4.832V22.55h4.832v4.832zm-48.321-22.55h4.833V0h-4.833v4.832zm26.577 0h-4.832V0h4.832v4.832zm38.656 0h4.832V0h-4.832v4.832zm43.489 0h4.832V0h-4.832v4.832zm86.977 0H422V0h-4.832v4.832zm-38.657 0h-4.832V0h4.832v4.832zm16.913 0h4.832V0h-4.832v4.832zm-82.145 0h-4.832V0h4.832v4.832zm38.656 0h4.832V0h-4.832v4.832zm-82.145 0h-4.832V0h4.832v4.832zm-69.259 117.581h-4.833v-4.832h4.833v4.832zm-86.978 0h-4.832v-4.832h4.832v4.832zm38.657 0h4.832v-4.832h-4.832v4.832zm-82.145 0h-4.832v-4.832h4.832v4.832zm-48.32 0h4.831v-4.832h-4.832v4.832zm157.041 0h-4.832v-4.832h4.832v4.832zm-91.809 0h4.832v-4.832h-4.832v4.832zm48.321 0h-4.832v-4.832h4.832v4.832zm-91.81 0h4.833v-4.832h-4.832v4.832zm-38.656 0H0v-4.832h4.832v4.832zm195.699-22.55h-4.833V95.03h4.833v4.832zm-86.978 0h-4.832V95.03h4.832v4.832zm38.657 0h4.832V95.03h-4.832v4.832zm-82.145 0h-4.832V95.03h4.832v4.832zm-48.32 0h4.831V95.03h-4.832v4.832zm157.041 0h-4.832V95.03h4.832v4.832zm-91.809 0h4.832V95.03h-4.832v4.832zm48.321 0h-4.832V95.03h4.832v4.832zm-91.81 0h4.833V95.03h-4.832v4.832zm-38.656 0H0V95.03h4.832v4.832zm0-24.965H0v-4.832h4.832v4.832zm16.912 0h4.832v-4.832h-4.832v4.832zm48.32 0h-4.831v-4.832h4.832v4.832zm43.489 0h-4.832v-4.832h4.832v4.832zm86.978 0h-4.833v-4.832h4.833v4.832zm-48.321 0h4.832v-4.832h-4.832v4.832zm26.576 0h-4.832v-4.832h4.832v4.832zm-91.809 0h4.832v-4.832h-4.832v4.832zm48.321 0h-4.832v-4.832h4.832v4.832zm-91.81 0h4.833v-4.832h-4.832v4.832zM4.833 52.347H0v-4.832h4.832v4.832zm16.912 0h4.832v-4.832h-4.832v4.832zm48.32 0h-4.831v-4.832h4.832v4.832zm43.489 0h-4.832v-4.832h4.832v4.832zm86.978 0h-4.833v-4.832h4.833v4.832zm-48.321 0h4.832v-4.832h-4.832v4.832zm26.576 0h-4.832v-4.832h4.832v4.832zm-91.809 0h4.832v-4.832h-4.832v4.832zm48.321 0h-4.832v-4.832h4.832v4.832zm-91.81 0h4.833v-4.832H43.49v4.832zm152.21-24.965h4.833v-4.833h-4.833v4.833zm-86.977 0h4.832v-4.833h-4.832v4.832zm48.321 0h-4.832v-4.833h4.832v4.832zm-91.81 0h4.833v-4.833h-4.832v4.832zm-38.656 0h-4.832v-4.833h4.832v4.832zm147.378 0h4.832v-4.833h-4.832v4.832zm-82.145 0h-4.832v-4.833h4.832v4.832zm38.657 0h4.832v-4.833h-4.832v4.832zm-82.145 0H43.49v-4.833h4.832v4.832zM0 27.381h4.832v-4.833H0v4.832zm0-22.55h4.832V0H0v4.832zm26.576 0h-4.832V0h4.832v4.832zm38.657 0h4.832V0h-4.832v4.832zm43.488 0h4.832V0h-4.832v4.832zm86.977 0h4.833V0h-4.833v4.832zm-38.656 0h-4.832V0h4.832v4.832zm16.912 0h4.832V0h-4.832v4.832zm-82.145 0h-4.832V0h4.832v4.832zm38.657 0h4.832V0h-4.832v4.832zm-82.145 0h-4.832V0h4.832v4.832z" fill="currentColor" fill-opacity=".25"/></symbol><symbol id="logo-1" viewBox="0 0 164 48"><path fill-rule="evenodd" clip-rule="evenodd" d="M122.759 29.552c.712-.679 1.274-1.459 1.627-2.382.358-.923.512-1.846.512-2.866v-.438c0-.102 0-.342-.154-.683l-2.752-.342v-1.02h9.52v1.02l-2.951.342c-.609 1.458-1.325 2.82-2.139 3.987-.818 1.265-1.785 2.285-2.747 3.305 1.678 1.897 3.208 3.258 4.63 4.181 1.427.78 2.752 1.265 4.174 1.265h.103v1.02h-10.961c-.753-1.01-1.506-1.768-2.325-2.723-1.208.67-2.263 1.343-3.319 1.781-2.129.873-4.406 1.38-6.707 1.38s-4.123-.581-5.453-1.601c-1.32-1.122-2.036-2.575-2.036-4.422 0-1.703.716-3.258 2.036-4.67 1.325-1.459 3.31-2.723 5.955-3.84-.353-.679-.711-1.362-.865-1.943-.204-.679-.358-1.214-.358-1.796a6.7 6.7 0 01.716-2.967c1.59-3.208 5.866-5.105 9.316-5.105 1.273 0 2.342.245 3.207.78.711.683 1.171 1.51 1.171 2.53 0 1.264-.711 2.38-2.036 3.645-1.376 1.316-3.658 2.585-5.448 3.259 2.427 2.93 4.616 5.575 7.284 8.312v-.01zm-9.417-13.759c0 .683.102 1.362.353 2.045.358.678.711 1.505 1.171 2.285 1.088-.568 1.948-1.062 2.752-2.04.609-.679.814-1.459.814-2.285 0-4.375-5.09-3.452-5.09 0v-.005zm-2.854 8.073c-1.218.775-2.134 1.601-2.65 2.381-.558.923-.916 1.846-.916 2.866 0 1.556.558 2.82 1.883 3.84 2.631 2.197 6.54 1.713 9.413.346 0 0-6.866-8.196-7.735-9.433h.005zm49.133-12.591l.353-.679 1.07.097-1.172 7.053h-.967l-.251-1.8c-.102-1.168-.813-2.091-2.24-2.867-1.325-.923-3.003-1.264-4.89-1.264-2.85 0-5.141 1.02-6.926 2.963-1.632 2.04-2.497 4.666-2.497 7.975 0 4.085.865 7.242 2.497 9.531 1.678 2.382 4.072 3.499 6.926 3.499 1.325 0 2.24-.342 2.752-.877.353-.679.562-2.188.562-4.57v-1.8c0-.683-.102-1.458-.102-2.381l-.103-.148-.255-.097-2.496-.341v-1.02h12.016l.102 1.02-2.138.341-.256.097v.148c-.102.78-.204 2.04-.204 3.743-.103 1.606-.103 3.983-.103 6.905-.255 0-.716-.097-1.325-.342-.711-.097-1.217-.341-1.678-.438-1.529.438-2.951.78-4.378 1.024-1.423.24-2.85.337-4.175.337-4.634 0-8.199-1.117-10.844-3.401-2.497-2.285-3.77-5.447-3.77-9.674 0-4.228 1.529-7.68 4.379-10.21 2.951-2.381 7.028-3.646 12.374-3.646 1.069 0 2.394.148 3.667.245 1.325.097 2.645.341 4.072.582v-.005zm-64.106 0l.511-.679.916.097-1.176 7.053H94.8l-.204-1.8c-.154-1.168-.865-2.091-2.292-2.867-1.273-.923-2.952-1.264-4.839-1.264-2.85 0-5.14 1.02-6.824 2.963-1.78 2.04-2.594 4.666-2.594 7.975 0 4.085.814 7.242 2.492 9.531 1.683 2.382 4.077 3.499 7.029 3.499 1.17 0 2.142-.342 2.598-.877.511-.679.711-2.188.711-4.57 0-.535-.102-1.116-.102-1.8 0-.683-.098-1.458-.098-2.381l-.153-.148-.205-.097-2.496-.341v-1.02H99.89v1.02l-2.087.341-.102.097-.153.148c-.107.78-.205 2.04-.205 3.743-.153 1.606-.153 3.983-.153 6.905-.256 0-.716-.097-1.325-.342-.711-.097-1.172-.341-1.632-.438-1.422.438-3.003.78-4.43 1.024-1.422.24-2.85.337-4.123.337-4.685 0-8.246-1.117-10.742-3.401-2.594-2.285-3.821-5.447-3.821-9.674 0-4.228 1.427-7.68 4.327-10.21 2.952-2.381 6.978-3.646 12.374-3.646 1.172 0 2.343.148 3.663.245 1.325.097 2.748.341 4.021.582l.014-.005z"/><path fill-rule="evenodd" clip-rule="evenodd" d="M19.463 16.472L33.91 1.97c2.64-2.649 6.982-2.617 9.613.037l16.93 17.091c2.63 2.654 2.63 7.002 0 9.66l-16.93 17.09c-2.631 2.66-6.903 2.622-9.571 0l-1.25-1.227L48.44 28.915c2.663-2.654 2.663-7.002 0-9.66L35.718 6.545l-16.52 16.49c-.274.295-.298.618-.028.932l6.554 6.577 8.87-8.834 2.37 2.373c.251.267.256.498.037.692L25.613 36.143l-.767.766-.856-.84-3.267-3.217c-2.2-2.202-4.268-4.339-4.877-5.188-1.864-2.081-1.687-5.741.205-7.588.418-.512 1.715-1.869 3.412-3.6v-.004z" fill="currentColor"/><path fill-rule="evenodd" clip-rule="evenodd" d="M1.994 19.255L19.12 2.165c2.663-2.66 7.019-2.66 9.678 0L30 3.364c-1.367 1.393-14.912 14.81-16.465 16.702-1.553 1.897-1.669 5.562-.204 7.588 1.464 2.026 11.263 11.45 11.263 11.45l14.521-14.492c.121-.129.116-.272-.037-.438l-4.514-4.505-8.725 8.71c-1.617-1.616-2.728-2.811-4.346-4.427-.246-.309-.274-.623-.023-.932L35.63 8.89l10.296 10.36c2.664 2.654 2.664 7.002 0 9.66L28.801 46.001c-2.663 2.659-7.019 2.659-9.677 0L1.994 28.915c-2.663-2.659-2.663-7.002 0-9.66z" fill="currentColor"/></symbol><symbol id="logo-2" viewBox="0 0 102 30"><path fill-rule="evenodd" clip-rule="evenodd" d="M23.778 0H.26v5.102h17.56L.758 23.104l-.02.02a.521.521 0 01-.016.018l-.084.088a2.549 2.549 0 001.913 4.236h20.715v-5.103H8.605L25.441 4.481A2.55 2.55 0 0023.777 0zm75.516 0a.982.982 0 00-.084.004 2.545 2.545 0 00-2.225 1.161L88.9 13.645l-8.084-12.48A2.548 2.548 0 0078.59.004l-.043-.002a2.55 2.55 0 00-2.593 2.548v20.07h5.102v-11.7l5.682 8.766a2.552 2.552 0 003.528.755c.481-.312 1.344-1.593 1.477-1.8l5.004-7.722V22.62h5.103V2.55A2.55 2.55 0 0099.301 0h-.007zM102 23.515H76.106v5.503H102v-5.503zm-17.116 4.242l-.081-.327a1.66 1.66 0 01-.673.13c-.77 0-1.218-.496-1.218-1.278 0-.833.495-1.31 1.24-1.31.264 0 .486.056.637.131l.104-.334c-.108-.057-.364-.143-.754-.143-.987 0-1.66.622-1.66 1.67s.668 1.613 1.565 1.613c.388 0 .693-.077.84-.151v.002-.003zm.517.098v.002l-.004-.002h.004zm0 0v-3.177h.452l1.014 1.609c.23.373.42.707.565 1.032l.014-.004a13.892 13.892 0 01-.048-1.306v-1.33h.386v3.178h-.415l-1.01-1.613a9.298 9.298 0 01-.59-1.062l-.013.005c.023.4.027.781.027 1.31v1.358h-.382zm4.1-.272c-.417 0-.771-.232-.781-.79h1.601a.98.98 0 00.014-.194c0-.42-.192-1.071-.942-1.071-.664 0-1.07.54-1.07 1.226 0 .687.42 1.155 1.122 1.155.364 0 .617-.082.763-.147l-.074-.296a1.495 1.495 0 01-.633.117zm.436-1.09c.005-.26-.108-.67-.576-.67-.424 0-.603.382-.637.67h1.213zm1.387.241l-.307-1.161h-.425l.69 2.281h.377l.368-1.084a6.73 6.73 0 00.208-.754h.009c.056.269.124.494.203.75l.348 1.088h.377l.737-2.281h-.412l-.325 1.145c-.075.269-.135.51-.174.741h-.013a9.315 9.315 0 00-.204-.745l-.354-1.141h-.348l-.373 1.165c-.077.245-.151.49-.203.721h-.014a9.666 9.666 0 00-.126-.563l-.019-.079-.02-.083zm2.912.702c.127.075.343.16.551.16.296 0 .438-.146.438-.338 0-.192-.117-.303-.42-.416-.415-.15-.607-.372-.607-.646 0-.368.302-.668.788-.668.23 0 .434.06.556.142l-.1.303a.89.89 0 00-.467-.138c-.246 0-.377.142-.377.312 0 .187.13.273.429.39.39.147.598.344.598.685 0 .407-.316.689-.849.689-.25 0-.481-.066-.642-.16l.1-.312.002-.003zm-56.812 1.557c-7.753 0-14.062-6.307-14.062-14.062 0-7.755 6.31-14.06 14.062-14.06a13.91 13.91 0 018.658 2.982l-1.391 1.78a11.689 11.689 0 00-7.267-2.5c-6.508 0-11.803 5.295-11.803 11.803 0 6.508 5.295 11.802 11.803 11.802 6.508 0 11.785-5.313 11.8-11.84.018-5.534 4.52-10.033 10.053-10.033 5.543 0 10.063 4.514 10.063 10.064s-4.513 10.063-10.063 10.063l.002.003c-1.64 0-3.266-.405-4.708-1.168l1.058-1.997a7.81 7.81 0 003.648.903c4.303 0 7.804-3.5 7.804-7.804 0-4.303-3.501-7.805-7.804-7.805-4.303 0-7.794 3.502-7.794 7.805-.031 7.761-6.335 14.07-14.06 14.07v-.006zm21.86 0c-2.46 0-4.88-.644-7-1.864l1.124-1.958a11.786 11.786 0 005.873 1.563c6.508 0 11.803-5.295 11.803-11.803 0-6.508-5.295-11.803-11.803-11.803-6.494 0-11.763 5.291-11.8 11.8h.002c0 5.549-4.509 10.064-10.052 10.064v.003c-5.548 0-10.064-4.514-10.064-10.064S31.88 4.868 37.431 4.868c1.64 0 3.266.404 4.707 1.165l.054.03 1.414.851-1.165 1.936-1.387-.836a7.813 7.813 0 00-3.623-.89c-4.304 0-7.805 3.502-7.805 7.805s3.501 7.804 7.805 7.804c4.291 0 7.775-3.483 7.793-7.77h-.002C45.24 7.19 51.549.867 59.282.867c7.732 0 14.061 6.307 14.061 14.062 0 7.755-6.307 14.062-14.062 14.062l.002.002z" fill="currentColor"/></symbol></svg>